<svg xmlns="http://www.w3.org/2000/svg" width="648" height="648"><path fill="#FDFEFD" d="M297 0a78 78 0 0 1 4.78-.13l3.083-.009 3.356.006 3.419-.003q3.585 0 7.172.006 5.511.006 11.022-.007 3.474 0 6.95.004l3.355-.006 3.084.01 2.73.002L348 0l1 1c2.179.16 4.358.314 6.539.443C378.12 2.863 401.605 7.597 423 15l2.948 1.009q5.002 1.725 9.99 3.491l3.162 1.115c5.716 2.067 11.145 4.382 16.543 7.175a163 163 0 0 0 6.822 3.28C474.065 36.385 485.085 42.4 496 49l1.896 1.136C504.717 54.24 504.717 54.24 507 56v2l4 1v2l6 2v2h2v2l2.313.875C524 69 524 69 527 71v2h2v2l2.313.875C534 77 534 77 537 79v2h2v2h2v2l1.734.781c2.477 1.333 4.4 2.87 6.516 4.719l2.14 1.844L553 94v2h2v2l1.75.688c2.847 1.66 4.37 3.627 6.25 6.312v2l1.652.613c3.291 1.944 5.487 4.678 7.91 7.575l1.568 1.854c3.848 4.61 7.535 9.33 11.12 14.145l1.448 1.925c1.159 1.588 2.238 3.235 3.302 4.888v3h2l2 3v3h2l2 3v3h2c1.625 2.313 1.625 2.313 3 5v3h2c8.259 15.055 15.92 30.297 21.71 46.484.883 2.405 1.84 4.784 2.86 7.133a59 59 0 0 1 2.93 8.758c1.58 6.03 3.515 11.888 5.625 17.75.995 3.27 1.411 6.495 1.875 9.875l1 1a312 312 0 0 1 1.375 8.563 534 534 0 0 0 3.977 22.824c1.403 7.817 1.818 15.327 1.851 23.258l.02 3.38c.018 3.596.024 7.192.027 10.788l.006 3.683c.018 44.955.018 44.955-4.256 53.504-.277 1.579-.52 3.164-.75 4.75-2.492 15.36-6.15 30.547-11.25 45.25l-.79 2.284C627.412 441.173 623.099 451.66 618 462l-2.008 4.133c-3.304 6.748-6.728 13.318-10.695 19.707-1.222 2.035-2.275 4.082-3.297 6.223-2.254 4.608-5.067 8.737-8 12.937l-2.152 3.121c-9.065 13.01-19.096 25.23-29.848 36.879q-1.359 1.512-2.715 3.027c-4.487 4.994-8.987 9.826-14.144 14.145-2.163 1.847-4.237 3.774-6.31 5.72-38.868 36.356-89.326 60.296-140.749 72.545-10.97 2.514-21.977 4.45-33.125 5.985-3.643.449-3.643.449-5.875 1.106-2.499.567-4.784.6-7.347.601l-3.19.01-3.44-.006-3.574.003q-3.754 0-7.507-.006c-3.784-.005-7.567 0-11.35.007-11.927.003-23.791-.025-35.674-1.137v-2l-2.809.035-3.628.028-3.622.035L274 645l-1-1a145 145 0 0 0-6.062-.562l-3.348-.254L261 643v-2h-9v-2l-3.437.188c-3.948-.014-6.966-.834-10.645-2.188-4.111-1.409-8.29-2.538-12.48-3.687l-2.494-.687q-2.97-.815-5.944-1.626v-2l-2.184.121c-3.105-.133-5.037-.816-7.879-2.058l-3.195-1.395-1.79-.8c-2.142-.953-4.293-1.885-6.444-2.817-9.077-3.973-17.977-8.21-26.758-12.801l-2.595-1.356A205 205 0 0 1 151 599l-1.747-1.11a533 533 0 0 1-4.753-3.077l-3.156-2.043L139 591v-2l-2.187-.812c-2.81-1.187-5.297-2.463-7.813-4.188v-2l-1.746-.809c-4.13-2.183-7.619-5.278-11.254-8.191l-3.031-2.39-3.031-2.423-2.848-2.269L105 564v-2h-2v-2l-1.61-.625c-3.398-1.955-5.9-4.596-8.64-7.375l-1.68-1.656c-1.4-1.407-2.74-2.872-4.07-4.344v-2h-2v-2h-2c-1.438-1.57-2.8-3.209-4.125-4.875-.808-1.012-1.616-2.024-2.45-3.066-.8-1.01-1.6-2.02-2.425-3.059l-2.02-2.465c-5.225-6.397-10.02-13.07-14.768-19.822q-1.26-1.781-2.541-3.549c-2.2-3.04-4.283-6.03-6.046-9.351-1.898-3.513-3.89-6.948-5.937-10.375-21.565-36.995-37.784-81.05-40.344-124.063-.194-2.362-.194-2.362-1.351-4.134-1.302-2.939-1.233-5.267-1.22-8.478v-3.822l.032-4.113.008-4.22c.008-3.696.028-7.391.05-11.087.02-3.774.03-7.548.04-11.322.02-7.4.055-14.8.097-22.199h2l.078-2.29C4.77 237.477 27.12 187.493 54.735 144.028a136 136 0 0 0 3.011-5.117L59 137h2l2-6h2v-2h2l.875-1.75L71 121h2v-2h2l.875-1.75L79 111h2v-2h2v-2h2v-2h2v-2h2l1-4h2v-2h2v-2h2v-2c2.375-2.125 2.375-2.125 5-4h2v-2h2v-2a263 263 0 0 1 5-4l1-2 1.813-.875c3.425-1.762 5.67-4.56 8.25-7.375L123 69h3v-2c2.875-2.125 2.875-2.125 6-4h2v-2l3-1.625c3.678-2.078 6.921-4.551 10.203-7.203L149 51h3v-2c3.295-1.723 6.331-3.294 10-4v-2l1.59-.777c4.092-2.023 8.16-4.071 12.156-6.278C210.362 16.921 251.01 5.06 290.275 1.595c1.91-.17 3.818-.379 5.725-.595z"/><path fill="#F2042E" d="m123.834 272.75 3.53.001 1.974-.008c2.198-.006 4.396.002 6.594.01q2.379-.003 4.758-.008c4.37-.006 8.739 0 13.108.008 4.708.007 9.415.002 14.123-.002q13.839-.006 27.679.01c10.733.01 21.467.01 32.2.01q28.718.001 57.434.023a70324 70324 0 0 0 59.265.02h3.465q31.717 0 63.433.015 11.237.004 22.474.004 13.68 0 27.363.014 6.988.008 13.975.007 6.386-.002 12.771.01h4.642q3.132-.002 6.266.007l3.529.003L505 273l1 1c.11 2.415.155 4.803.158 7.22l.015 2.316q.022 3.871.032 7.744l.03 5.527q.04 7.527.068 15.055c.022 5.239.05 10.477.076 15.715q.074 14.89.138 29.782.076 16.948.16 33.895.17 34.873.323 69.746h2v2c2.476 1.527 4.075 2.005 7.016 2.195l3.234-.07 3.266-.055L525 465v-2l3-3c.998-2.995 1.153-5.073 1.205-8.206l.06-3.215.051-3.466.063-3.552q.098-5.625.183-11.249l.131-7.619q.162-9.346.307-18.693c13.722-1.13 13.722-1.13 19.52-1.098l3.154.01 3.138.025 3.292.014q3.948.018 7.896.049c.95 3.19 1.108 6.022 1.07 9.344l-.032 3.238-.054 3.488-.05 3.61q-.056 3.786-.121 7.571c-.062 3.838-.104 7.676-.145 11.515l-.121 7.367-.029 3.451c-.212 10-2.553 18.24-7.206 27.041l-.97 1.887A610 610 0 0 1 557 486h-2l-.762 2.23c-2.225 4.978-6.134 8.277-10.238 11.77-7.498 5.37-15.156 9.395-24 12l-2.05.68c-5.31 1.505-10.658 1.524-16.138 1.57l-2.342.028c-4.57-.025-8.15-.634-12.47-2.278q-1.995-.375-4-.688c-9.08-1.99-17.503-6.64-24.438-12.75Q456.25 496.312 454 494l-1.922-1.86c-7.532-7.798-11.63-17.86-14.387-28.182-1.036-4.435-1.525-8.85-1.937-13.38l-.29-2.931q-.305-3.097-.599-6.195a2092 2092 0 0 0-.948-9.739 7237 7237 0 0 1-2.756-28.543q-.515-5.363-1.043-10.723a1346 1346 0 0 1-.686-7.362c-.81-8.494-1.584-16.556-6.62-23.773-2.97-3.872-6.394-6.291-10.812-8.312a84 84 0 0 0-5.27-1.137l-2.694-.502L402 351l.003 2.527q.033 30.394.049 60.788.007 14.697.023 29.396.015 12.805.02 25.612 0 6.784.01 13.57.01 6.378.008 12.757 0 2.347.006 4.696.007 3.192.001 6.384l.003 3.617L402 513l-1 1c-2.454.1-4.88.136-7.334.13l-2.325.005q-3.825.004-7.65-.002l-5.295.003q-5.557.002-11.114-.006-7.134-.006-14.269.004-5.47.005-10.94 0-2.631 0-5.262.002-3.674.003-7.348-.007l-2.212.007c-5.022-.022-5.022-.022-7.251-1.136V412l-120 1c.04 32.865.04 32.865.09 65.73.005 6.343.005 6.343.005 9.309q.004 3.12.01 6.24.01 4.713.009 9.428l.01 2.828A223 223 0 0 1 200 513l-1 1c-2.454.106-4.88.147-7.334.145l-2.325.01q-3.825.013-7.65.013l-5.295.01q-5.557.009-11.114.007c-4.756 0-9.512.014-14.269.031q-5.47.015-10.94.013-2.631 0-5.262.013c-2.45.01-4.898.007-7.348 0-.73.007-1.46.012-2.212.018-1.752-.011-3.504-.126-5.251-.26l-2-2c-.2-3.104-.274-6.12-.26-9.224-.005-.969-.008-1.937-.012-2.934-.01-3.265-.007-6.529-.003-9.793l-.015-6.996c-.014-6.35-.014-12.698-.012-19.047.002-5.96-.005-11.92-.01-17.879q-.014-18.784-.003-37.568c.006-11.467-.006-22.934-.025-34.4q-.03-17.646-.024-35.291c.002-6.609 0-13.218-.014-19.826q-.019-9.318.002-18.635.004-3.429-.009-6.858c-.01-3.108-.002-6.216.01-9.325l-.022-2.772c.022-2.51.022-2.51.397-6.452 3-2 3-2 5.834-2.25"/><path fill="#F2042D" d="M297 0a78 78 0 0 1 4.78-.13l3.083-.009 3.356.006 3.419-.003q3.585 0 7.172.006 5.511.006 11.022-.007 3.474 0 6.95.004l3.355-.006 3.084.01 2.73.002L348 0l1 1c2.179.16 4.358.314 6.539.443C378.12 2.863 401.605 7.597 423 15l2.948 1.009q5.002 1.725 9.99 3.491l3.162 1.115c5.716 2.067 11.145 4.382 16.543 7.175a163 163 0 0 0 6.822 3.28C474.065 36.385 485.085 42.4 496 49l1.896 1.136C504.717 54.24 504.717 54.24 507 56v2l4 1v2l6 2v2h2v2l2.313.875C524 69 524 69 527 71v2h2v2l2.313.875C534 77 534 77 537 79v2h2v2h2v2l1.734.781c2.477 1.333 4.4 2.87 6.516 4.719l2.14 1.844L553 94v2h2v2l1.75.688c2.847 1.66 4.37 3.627 6.25 6.312v2l1.652.613c3.291 1.944 5.487 4.678 7.91 7.575l1.568 1.854c3.848 4.61 7.535 9.33 11.12 14.145l1.448 1.925c1.159 1.588 2.238 3.235 3.302 4.888v3h2l2 3v3h2l2 3v3h2c1.625 2.313 1.625 2.313 3 5v3h2c8.259 15.055 15.92 30.297 21.71 46.484.883 2.405 1.84 4.784 2.86 7.133a59 59 0 0 1 2.93 8.758c1.58 6.03 3.515 11.888 5.625 17.75.995 3.27 1.411 6.495 1.875 9.875l1 1a312 312 0 0 1 1.375 8.563 534 534 0 0 0 3.977 22.824c1.403 7.817 1.818 15.327 1.851 23.258l.02 3.38c.018 3.596.024 7.192.027 10.788l.006 3.683c.018 44.955.018 44.955-4.256 53.504-.277 1.579-.52 3.164-.75 4.75-2.492 15.36-6.15 30.547-11.25 45.25l-.79 2.284C627.412 441.173 623.099 451.66 618 462l-2.008 4.133c-3.304 6.748-6.728 13.318-10.695 19.707-1.222 2.035-2.275 4.082-3.297 6.223-2.254 4.608-5.067 8.737-8 12.937l-2.152 3.121c-9.065 13.01-19.096 25.23-29.848 36.879q-1.359 1.512-2.715 3.027c-4.487 4.994-8.987 9.826-14.144 14.145-2.163 1.847-4.237 3.774-6.31 5.72-38.868 36.356-89.326 60.296-140.749 72.545-10.97 2.514-21.977 4.45-33.125 5.985-3.643.449-3.643.449-5.875 1.106-2.499.567-4.784.6-7.347.601l-3.19.01-3.44-.006-3.574.003q-3.754 0-7.507-.006c-3.784-.005-7.567 0-11.35.007-11.927.003-23.791-.025-35.674-1.137v-2l-2.809.035-3.628.028-3.622.035L274 645l-1-1a145 145 0 0 0-6.062-.562l-3.348-.254L261 643v-2h-9v-2l-3.437.188c-3.948-.014-6.966-.834-10.645-2.188-4.111-1.409-8.29-2.538-12.48-3.687l-2.494-.687q-2.97-.815-5.944-1.626v-2l-2.184.121c-3.105-.133-5.037-.816-7.879-2.058l-3.195-1.395-1.79-.8c-2.142-.953-4.293-1.885-6.444-2.817-9.077-3.973-17.977-8.21-26.758-12.801l-2.595-1.356A205 205 0 0 1 151 599l-1.747-1.11a533 533 0 0 1-4.753-3.077l-3.156-2.043L139 591v-2l-2.187-.812c-2.81-1.187-5.297-2.463-7.813-4.188v-2l-1.746-.809c-4.13-2.183-7.619-5.278-11.254-8.191l-3.031-2.39-3.031-2.423-2.848-2.269L105 564v-2h-2v-2l-1.61-.625c-3.398-1.955-5.9-4.596-8.64-7.375l-1.68-1.656c-1.4-1.407-2.74-2.872-4.07-4.344v-2h-2v-2h-2c-1.438-1.57-2.8-3.209-4.125-4.875-.808-1.012-1.616-2.024-2.45-3.066-.8-1.01-1.6-2.02-2.425-3.059l-2.02-2.465c-5.225-6.397-10.02-13.07-14.768-19.822q-1.26-1.781-2.541-3.549c-2.2-3.04-4.283-6.03-6.046-9.351-1.898-3.513-3.89-6.948-5.937-10.375-21.565-36.995-37.784-81.05-40.344-124.063-.194-2.362-.194-2.362-1.351-4.134-1.302-2.939-1.233-5.267-1.22-8.478v-3.822l.032-4.113.008-4.22c.008-3.696.028-7.391.05-11.087.02-3.774.03-7.548.04-11.322.02-7.4.055-14.8.097-22.199h2l.078-2.29C4.77 237.477 27.12 187.493 54.735 144.028a136 136 0 0 0 3.011-5.117L59 137h2l2-6h2v-2h2l.875-1.75L71 121h2v-2h2l.875-1.75L79 111h2v-2h2v-2h2v-2h2v-2h2l1-4h2v-2h2v-2h2v-2c2.375-2.125 2.375-2.125 5-4h2v-2h2v-2a263 263 0 0 1 5-4l1-2 1.813-.875c3.425-1.762 5.67-4.56 8.25-7.375L123 69h3v-2c2.875-2.125 2.875-2.125 6-4h2v-2l3-1.625c3.678-2.078 6.921-4.551 10.203-7.203L149 51h3v-2c3.295-1.723 6.331-3.294 10-4v-2l1.59-.777c4.092-2.023 8.16-4.071 12.156-6.278C210.362 16.921 251.01 5.06 290.275 1.595c1.91-.17 3.818-.379 5.725-.595zm-85 61-3.234 1.254c-22.806 9.139-50.137 24.287-67.296 42.358C140 106 140 106 137 107c-1.383 1.398-1.383 1.398-2.687 3.125a56 56 0 0 1-7.063 7.188c-26.504 22.601-48.054 54.029-62.317 85.63a342 342 0 0 1-2.394 5.143c-8.21 17.412-14.66 36.238-17.996 55.203L44 266l-1 1a88 88 0 0 0-.5 4.438c-.39 4.343-.39 4.343-1.5 6.562a172 172 0 0 0-.5 6.188A173 173 0 0 1 39 298c-1.213 8.97-1.239 17.966-1.25 27l-.006 2.382c-.9 22.961-.9 22.961 4.256 44.618.276 1.6.52 3.205.75 4.813.97 6.024 2.282 11.938 3.688 17.875l.622 2.66c1.757 7.323 3.942 14.436 6.815 21.402a495 495 0 0 1 4.5 11.5C62.681 441.455 67.491 452.334 73 463h2v4h2c1.013 2.533 2.02 5.056 2.938 7.625 1.079 2.413 2.182 3.576 4.062 5.375l1 3h2l.723 1.598c1.66 3.124 3.66 5.967 5.715 8.84l1.325 1.854C99.5 501.826 104.702 507.918 110 514l1.758 2.098c8.091 9.575 17.145 18.702 27.156 26.254C141 544 141 544 143.148 546.21L145 548h2v2l4 1v2l4 1v2l4 1v2c2.178 1.598 2.178 1.598 4.875 3.125l2.742 1.633c2.23 1.396 2.23 1.396 4.383 1.242v2c8.73 4.931 17.466 9.831 26.438 14.313l1.818.91c1.907.942 3.824 1.861 5.744 2.777l2.393 1.166c7.634 3.613 15.507 6.29 23.545 8.834l2.069.66c29.69 9.438 59.199 14.575 90.43 14.528l2.245-.002c40.847-.09 81.148-7.814 118.318-25.186v-2l2.375-.187c4.978-1.116 9.15-3.416 13.625-5.813v-2l2.2-.34c2.926-.69 5.023-1.715 7.613-3.222l2.394-1.38L474 569v-2l1.875-.437c2.158-.495 2.158-.495 4.125-1.563v-2l1.875-.437c2.158-.495 2.158-.495 4.125-1.563v-2l1.875-.437c2.158-.495 2.158-.495 4.125-1.563v-2l5-2v-2h3v-2h2v-2l1.625-.187c3.545-1.213 5.634-3.26 8.375-5.813v-2h2v-2h2v-2l2.375-.75L521 533c1.344-2.017 1.344-2.017 2-4h2v-2h2v-2h2v-2h2v-2h2l1-4h2v-2h2v-2l1.82-.796c2.305-1.273 3.438-2.416 5.055-4.47l1.547-1.949L548 503.75l1.578-1.988c3-3.81 5.774-7.696 8.422-11.762q1.365-2.018 2.734-4.031C575.132 464.694 586.591 442.319 595 418l.76-2.145c5.3-14.979 8.853-29.867 11.428-45.543l.506-3.056c2.24-14.257 2.513-28.484 2.494-42.881l-.003-2.693c-.03-12.664-.162-25.155-2.185-37.682l-.473-3.035c-6.241-39.12-19.68-76.784-41.319-110.103a371 371 0 0 1-3.216-5.069C557.352 156.98 550.704 149.01 544 141l-1.581-1.902c-8.39-10.072-17.147-19.665-27.157-28.172a308 308 0 0 1-5.305-4.633C491.651 90.098 469.347 74.976 447 65h-4v-2l-2.64-.918c-5.899-2.075-11.732-4.188-17.485-6.645C411.332 50.405 411.332 50.405 399 49v-2l-3.437-.437L392 46l-1-1c-2.67-.141-5.324-.042-8 0v-2c-1.174-.09-1.174-.09-2.371-.184l-3.067-.254-3.058-.246L372 42l-1-1a177 177 0 0 0-7.062-.062l-3.91.027L357 41v-2c-50.845-1.806-97.55 2.299-145 22"/><path fill="#F2042D" d="m262.68 109.855 3.618-.01q4.851-.012 9.701-.012 3.048-.002 6.095-.006 10.68-.014 21.359-.012 9.877-.001 19.755-.026 8.547-.019 17.092-.018 5.076.001 10.15-.013c36.197-.095 36.197-.095 50.488 4.68l4.273 1.351L409 117q2.53.66 5.063 1.312c7.362 2.177 14.159 6.148 20.937 9.688v2l2.875.937C441 132 441 132 443 133v2l6 2v2h2v2l2.313.875C456 143 456 143 459 145v2h2v2h2v2h2v2l1.797.785c2.362 1.302 3.712 2.608 5.453 4.652l1.578 1.81L475 162v3l1.875.812C479 167 479 167 481 170v3h2c3.125 5.176 3.125 5.176 4 7v3h2c8.414 17.048 8.414 17.048 10.422 25.594.57 2.376 1.315 4.608 2.14 6.906 3.22 9.532 3.794 19.196 4.063 29.187l.117 3.608q.14 4.352.258 8.705c-8.127 1.13-16.194 1.14-24.381 1.127l-4.684.005q-6.412.005-12.823-.001-6.922-.002-13.846.004-13.55.005-27.1 0-11.007-.003-22.015-.001h-3.165l-6.365.001q-29.83.004-59.661-.006-25.617-.005-51.232.001a140059 140059 0 0 1-65.816.004h-3.149q-11.004-.002-22.008.002-13.395.005-26.79-.003-6.839-.005-13.677 0-6.252.004-12.503-.004-2.27-.001-4.54.002-3.067.003-6.136-.005h-3.454C120 258 120 258 118 257c-.553-28.839 5.841-52.467 19-78a902 902 0 0 0 2-4h2l2-6h2l.875-1.75L147 165l.875-2c1.366-2.428 3.131-4.07 5.125-6l1-2h2v-2h2v-2h2v-2h2v-2c1.65-1.026 3.32-2.023 5-3l1.688-1.688L170 141h2v-2h2v-2l6-2v-2l6-2v-2c13.452-6.176 26.526-11.938 40.875-15.688l2.432-.65c10.93-2.74 22.162-2.812 33.374-2.807"/><path fill="#FDFEFD" d="M314 155c2.473 2.229 3.81 4.326 5.191 7.344l1.174 2.527 1.197 2.629q1.186 2.58 2.38 5.156l1.052 2.307c1.062 2.26 1.062 2.26 3.006 5.037 2.456.678 2.456.678 5.34.914l3.22.367 3.377.344q3.296.36 6.59.727c.977.1 1.954.202 2.961.307C352 183 352 183 355 184c-.312 1.938-.312 1.938-1 4l-3 1v2h-2v2h-3v2h-2v2h-2v2h-2v2h-2v2h-2l.367 2.216c.549 3.323 1.09 6.647 1.633 9.971l.578 3.487.547 3.369.508 3.094c.341 2.661.436 5.184.367 7.863-4.128-.607-7.332-2.038-11-4v-2l-2.562-.75c-2.769-1.007-4.591-1.936-7-3.5L316 221c-5.016 1.495-9.63 4.345-14.258 6.758C299 229 299 229 296 229v2l-7 2q.356-3.22.719-6.437.265-2.406.5-4.813l.219-2.187.193-2.128C291 215 291 215 291.822 212.723c.93-2.767 1.35-4.796 1.178-7.723-2.518-4.027-5.847-6.981-9.375-10.125l-2.773-2.61A381 381 0 0 0 274 186l2-3c2.395-.362 2.395-.362 5.383-.387 9.964-.337 9.964-.337 19.617-2.613 2.645-2.187 3.951-4.476 5.25-7.625a95 95 0 0 0 2.13-6.427c.858-2.697 2.178-5.022 3.62-7.448l1.188-2.094zM202 155l2 1c.898 1.563.898 1.563 1.805 3.57l1.02 2.22 1.05 2.335a317 317 0 0 0 3.124 6.727C212 173 212 173 212.725 175.05c.815 2.232.815 2.232 3.275 4.95 3.967 1.274 7.922 1.573 12.063 1.875q3.267.306 6.535.617l2.922.23C240 183 240 183 243 184c-.125 1.688-.125 1.688-1 4-1.876 1.942-3.804 3.387-6 5h-2v2h-2v2h-2v2h-2l-2 4h-2l.367 2.216c.549 3.323 1.09 6.647 1.633 9.971l.578 3.487.547 3.369.508 3.094c.341 2.661.436 5.184.367 7.863-4.86-.607-8.74-2.728-13-5v-2l-2.75-.875C209 224 209 224 207.063 222.813c-2.173-1.02-2.173-1.02-5.149-.653-5.535.878-10.086 4.004-14.861 6.778l-2.19 1.226-1.96 1.14c-1.903.696-1.903.696-4.144.31L177 231q.3-2.59.613-5.18a364 364 0 0 0 .5-4.425c.479-4.189 1.317-7.588 2.887-11.52.321-2.38.321-2.38 0-4.875-1.183-1.977-1.183-1.977-2.922-3.684l-1.851-1.942c-5.162-5.287-5.162-5.287-11.227-9.374v-2h-2l-1-4c2.573-1.286 4.505-1.137 7.383-1.191 9.976-.423 9.976-.423 19.617-2.809 3.255-2.706 4.607-5.894 6.055-9.793q.7-2.118 1.326-4.259c.857-2.697 2.177-5.022 3.619-7.448l1.188-2.094zM426 155c2.735 2.384 3.886 4.693 5.242 8.035 3.763 8.816 3.763 8.816 8.758 16.965 3.018 2.05 3.018 2.05 6.375 2.313q3.316-.054 6.625-.313 3.66.264 7.313.625 2.842.196 5.687.375l1 4-4 2v2h-2v2h-3v2h-2v2h-2v2h-2v2h-2v2h-2l.367 2.108c.55 3.171 1.091 6.344 1.633 9.517l.578 3.316.547 3.223.508 2.952c.38 2.992.43 5.87.367 8.884-4.75-.875-4.75-.875-7-2v-2l-1.687-.48c-5.132-1.57-9.116-3.466-13.391-6.727L428 221c-2.463.62-2.463.62-5 2l-3.008 1.508a3729 3729 0 0 0-6.25 3.25C411 229 411 229 408 229v2l-7 2c.659-6.353 1.53-12.635 2.563-18.937l.816-5.028.361-2.207c.307-1.85.307-1.85.26-3.828l-1.77-.783c-2.407-1.314-3.983-2.742-5.902-4.694l-2.012-2.03-2.066-2.118-2.113-2.14Q388.56 188.622 386 186l2-3c2.38-.346 2.38-.346 5.348-.352 9.992-.301 9.992-.301 19.652-2.648 3.442-2.88 5.046-6.31 6.717-10.403q.796-2.182 1.512-4.391c1.251-3.58 3.018-6.848 4.771-10.206"/><path fill="#DFFEFD" d="M561 478h4c-4.64 9.667-11.647 18.392-18 27l-1.988 2.71c-1.582 2-2.984 3.746-5.012 5.29-3.437 0-3.437 0-6-1v-4l3-2q1.745-2.139 3.477-4.29c1.732-1.944 3.603-3.585 5.586-5.272 3.605-3.075 6.793-6.15 8.937-10.438h2l.875-2.875C559 480 559 480 561 478"/><path fill="#CA0B28" d="M37 316h2v15h-2c-.846-2.941-1.135-5.568-1.125-8.625l-.008-2.352C36 318 36 318 37 316"/><path fill="#DEFEFD" d="M237 183c3.188.375 3.188.375 6 1-.25 1.875-.25 1.875-1 4-1.812 1.375-1.812 1.375-4 2-2.25-.875-2.25-.875-4-2l3-1-3-2z"/><path fill="#C31E36" d="M609 288h2l-1 15h-1q-.29-3.469-.562-6.937l-.317-3.903L608 289z"/><path fill="#DFFEFD" d="m164 183 3 1-2 4h-2l-1-4z"/><path fill="#CE0A28" d="M555 99c1.813.188 1.813.188 4 1 1.75 2.563 1.75 2.563 3 5h-3v-2h-2v-2h-2z"/></svg>