<svg xmlns="http://www.w3.org/2000/svg" width="648" height="648"><path fill="#0877C1" d="M296 0q11.162-.07 22.324-.104 5.184-.014 10.368-.047c3.979-.026 7.958-.035 11.937-.044l3.735-.032C350.35-.227 355.347.031 361 2c1.52.258 3.049.476 4.582.64l2.53.296 2.7.314c19.084 2.476 37.342 7.23 55.563 13.313l2.103.7C437.133 20.169 445.623 23.358 454 27v2l2.54.281c3.971.825 7.267 2.363 10.835 4.219l2.108 1.079C493.447 46.953 515.296 61.729 536 79l2.004 1.594A96 96 0 0 1 542 84v2l1.718.732c2.735 1.52 4.594 3.338 6.802 5.557l2.6 2.606 2.692 2.73 2.659 2.66C579.653 121.61 597.107 146.38 611 173l1.068 2.04c6.946 13.36 13.299 27.047 18.432 41.21l.774 2.094c1.406 4.015 1.99 7.408 1.726 11.656h2c4.806 15.9 8.232 31.931 10.6 48.37q.416 2.728.898 5.444c1.396 8.165 1.795 16.061 1.768 24.334l.005 3.93q.005 4.077-.01 8.153c-.012 3.466-.005 6.932.007 10.399.009 3.34.003 6.679-.002 10.018l.012 3.744c-.033 5.966-.331 10.97-2.278 16.608-.355 2.213-.355 2.213-.457 4.25l-.175 2.307-.18 2.443c-2.588 29.463-11.953 59.28-24.305 86.065-.871 1.909-1.707 3.83-2.54 5.755-8.397 19.047-19.63 37.707-32.343 54.18l-1.306 1.709c-3.171 4.145-6.385 8.254-9.694 12.291l-2.358 2.88c-6.172 7.457-12.677 14.471-19.549 21.287-1.6 1.59-3.188 3.19-4.777 4.79-6.46 6.469-13.144 12.362-20.316 18.043a589 589 0 0 0-3.375 2.875c-2.459 1.99-4.888 3.551-7.625 5.125l-3.187 2.188L511 589h-2l-1 3c-1.777 1.387-1.777 1.387-3.937 2.688l-2.153 1.324C500 597 500 597 498 597v2l-2.375 1.125c-2.768 1.377-5.373 2.934-8 4.563-31.573 19.113-67.529 31.856-103.666 38.745q-2.915.557-5.82 1.166c-22.377 4.591-45.09 3.838-67.823 3.64l-3.232-.024-3.004-.038-2.617-.03c-2.567-.153-4.953-.601-7.463-1.147a115 115 0 0 0-4.168-.36c-22.236-1.702-44.978-5.51-65.832-13.64a432 432 0 0 0-4.812-1.375c-4.659-1.363-8.911-3.249-13.293-5.32-2.967-1.337-5.96-2.45-9.02-3.555-7.618-2.874-14.613-6.742-21.753-10.616-5.309-2.837-10.723-5.473-16.122-8.134v-2l-1.625-.312c-3-.869-5.613-2.244-8.375-3.688v-2l-6-2v-2l-2.125-.75c-3.27-1.422-6.016-3.122-8.875-5.25v-2h-3a179 179 0 0 1-4-4l-2.937-1.937c-3.121-2.102-5.407-4.407-8.063-7.063a318 318 0 0 0-7.207-5.45L105 564v-2h-2c-1.48-1.504-1.48-1.504-3.187-3.562C94.149 551.342 94.149 551.342 87 546v-2h-2v-2h-2c-1.621-1.793-1.621-1.793-3.437-4.187l-1.895-2.497C76 533 76 533 74.375 530.25c-1.387-2.467-1.387-2.467-4-4.875C68 523 68 523 67 520h-2c-2.125-2.812-2.125-2.812-4-6v-3h-2l-2-5h-2l-2-6h-2a1530 1530 0 0 1-5-9l-1.89-3.422-1.922-3.515-1.833-3.34C39 478 39 478 39 476h-2l-.93-2.12-4.257-9.692-1.463-3.334c-2.302-5.237-4.624-10.461-7.022-15.655a148 148 0 0 1-5.39-13.574l-.764-2.203c-5.72-16.637-10.029-33.138-12.56-50.535-.489-3.785-.489-3.785-1.614-6.887a80 80 0 0 1-.316-4.23l-.127-2.432-.12-2.526-.13-2.56A2136 2136 0 0 1 2 354H0v-60h2l.148-2.79c.703-11.9 1.944-23.532 5.028-35.085a178 178 0 0 0 1.554-6.375c4.395-19.144 10.905-38.333 18.933-56.255 1.84-4.083 1.84-4.083 2.337-8.495l2-1c1.127-1.775 1.127-1.775 2.125-3.875l1.07-2.117c.991-2.112.991-2.112.805-5.008a319 319 0 0 1 3-3 184 184 0 0 0 3.625-6.312c3.557-6.377 7.401-12.519 11.395-18.63a114 114 0 0 0 3.617-5.96L59 137h2l.875-1.75L65 129h2l.781-1.715c1.348-2.526 2.933-4.611 4.719-6.847 1.944-2.443 3.767-4.838 5.5-7.438h2l.938-1.875L83 107h2v-2h2l.773-1.757c1.353-2.473 2.864-4.139 4.852-6.134l2.14-2.148L97 92.75l2.234-2.258 2.141-2.133 1.96-1.954L105 85h2v-2l5-2v-2c2.117-1.945 2.117-1.945 4.875-4.125l2.742-2.195L122 71h2v-2c1.614-1.317 3.294-2.554 5-3.75 3.502-2.473 6.946-4.971 10.313-7.625 3.069-2.329 5.91-3.68 9.687-4.625v-2c5.176-3.125 5.176-3.125 7-4h3v-2q2.371-1.226 4.75-2.437l2.672-1.372c2.22-1.026 4.192-1.706 6.578-2.191v-2h4v-2h5v-2h4v-2c11.484-5.212 23.104-9.814 35-14l2.338-.825C246.256 8.149 271.553 1.592 296 2z"/><path fill="#FDFDFD" d="m413 52 3.574 1.094c5.662 1.798 11.025 3.971 16.399 6.5 2.876 1.336 5.774 2.598 8.688 3.848C450.618 67.29 459.324 71.558 468 76v2l1.715.313c2.7.812 4.546 2.067 6.848 3.687 2.566 1.8 4.442 3.002 7.437 4v2h3v2l2.313.875C492 92 492 92 495 94v2l2.25.813c2.64 1.14 4.606 2.28 6.75 4.187v2l1.781.848c12.693 6.592 26.13 19.811 34.078 31.574 1.248 1.814 1.248 1.814 3.578 4.016 3.649 3.648 7.73 7.777 9.235 12.808L553 154h2a143 143 0 0 1 4.875 7.125l1.316 2.016q1.294 1.98 2.574 3.97 1.193 1.827 2.447 3.615c.977 1.392 1.888 2.83 2.788 4.274v3h2c16.04 29.167 32.097 62.33 35 96l1 2c9.013 44.764 4.268 94.115-10.023 137.2-4.084 11.994-8.188 23.915-14.29 35.05q-1.181 2.193-2.359 4.387l-1.178 2.193c-2.827 5.333-5.482 10.756-8.15 16.17h-2l-.332 1.715c-2.477 8.475-9.848 16.423-14.98 23.473L551.8 498.8l-1.788 2.43c-.532.725-1.063 1.451-1.61 2.2L547 505h-2l-1 4h-2l-.656 1.61c-1.842 3.277-4.305 5.898-6.844 8.64l-1.512 1.68c-1.285 1.399-2.632 2.74-3.988 4.07h-2l-.75 1.75c-1.433 2.58-3.034 4.311-5.25 6.25h-2l-1 4h-2c.612-4.482 2.413-8.111 4.5-12.062 2.641-5.034 4.612-9.201 4.642-14.946l.021-2.361.013-2.541q.034-2.723.072-5.444c.035-2.83.064-5.658.078-8.488.068-11.758.99-22.632 3.78-34.071 1.518-6.395 2.005-13.137.21-19.517-.718-1.878-1.512-3.727-2.316-5.57v-4h-2l-.55-3.078c-1.148-6.308-2.289-12.553-4.013-18.735-1.352-5.252-2.12-10.496-2.75-15.875l-.304-2.376c-.587-5.543-.276-10.645 1.617-15.936l2-2c1.932.17 1.932.17 4 1 1.584 1.443 1.584 1.443 3.094 3.273l1.683 2 1.723 2.102a942 942 0 0 0 3.406 4.086l1.51 1.837c1.571 1.806 1.571 1.806 3.773 3.245L542 389c.066 2.855.066 2.855-.437 6.188-.628 5.714-.628 5.714.562 11.25 1.706 3.727 4.133 6.538 6.875 9.562 2.003 3.004 2.493 4.71 3.125 8.188l.508 2.73L553 429c1.906-.154 1.906-.154 4-1 3.938-4.918 6.948-10.793 8-17 .397-5.745.647-11.06-1.187-16.562-2.076-2.792-3.871-4.566-6.813-6.438l-3.332-.691C550 386 550 386 548.531 384.677c-1.427-1.732-2.709-3.508-3.968-5.365l-1.419-2.019C535.849 366.683 529.969 355.27 526 343v-2l-2.178.215c-7.533.691-14.978.925-22.54.905l-3.707.003q-5.038.001-10.077-.007-5.454-.005-10.908-.002-9.43 0-18.862-.008-13.635-.011-27.271-.012-22.128-.004-44.254-.019-21.486-.014-42.97-.02h-2.679l-13.305-.005Q272.124 342.034 217 342l.84 3.035 1.097 4.027.553 1.99c1.165 4.3 1.885 8.531 2.51 12.948l1 1c.69 3.632 1.3 7.27 1.895 10.918.341 2.032.72 4.058 1.105 6.082l1 1c.261 1.427.467 2.865.648 4.305l.354 2.691.373 2.879c.902 6.713 2.005 13.079 4 19.563 1.03 4.22 1.196 8.485 1.414 12.812.106 2.84.106 2.84 1.211 5.75 2.065 14.181 2.513 27.905 0 42l-.66 3.709c-.758 4.205-1.542 8.406-2.34 12.603l-.398 2.093c-.381 1.987-.773 3.973-1.165 5.958l-.69 3.51c-.685 2.866-1.57 5.43-2.747 8.127h-2c-.235.843-.47 1.686-.71 2.555-1.492 3.984-3.504 7.094-5.915 10.57l-1.338 1.975a884 884 0 0 1-6.404 9.298c-5.213 7.226-5.213 7.226-7.633 15.602 1.105 2.243 1.105 2.243 3 4 2.213.583 2.213.583 4.715.47l2.892.009 3.116-.053 3.2-.01q3.351-.015 6.701-.06c3.428-.043 6.856-.06 10.284-.073q3.252-.02 6.502-.045l3.122-.022 2.882-.039 2.543-.03c2.11-.021 2.11-.021 4.043-1.147.652-2.025.652-2.025 1-4h2l.25-2.812L260 542c2.063-1.875 2.063-1.875 4-3l2.125 1.5c2.8 1.652 2.8 1.652 5.938 2L275 542c2.055-2.171 2.055-2.171 4-5a93 93 0 0 1 3.313-2.812c4.027-3.377 7.38-7.111 10.687-11.188.732-.895 1.464-1.79 2.219-2.71 3.969-4.848 3.969-4.848 6.285-10.548.051-2.089.051-2.089-.504-4.742l-2-1v-2h-2a101 101 0 0 1-4.437-5.187l-2.372-2.918c-1.942-2.566-3.67-5.062-5.191-7.895v-2h-2c-4.603-15.454-7.29-30.316-3.865-46.323.809-3.284 1.807-6.462 2.865-9.677l1.215-3.691c3.876-10.596 9.682-19.87 15.785-29.309l2.14.219c22.693 2.052 43.566-.117 65.433-6.644 6.07-1.744 11.873-2.236 18.115-1.075 4.283 2.779 6.995 7.181 9.488 11.57C395 401 395 401 395 404h2c13.726 26.852 13.726 26.852 14.07 39.602-.288 5.475-1.742 9.493-4.601 14.148L405 460l-1.594 2.563c-2.96 4.644-2.96 4.644-4.406 6.437h-2l-.437 1.875C396 473 396 473 395 475h-2l-2 6h-2l-.812 2.2c-1.175 2.769-2.527 5.11-4.188 7.613l-1.562 2.394L381 495h-2l-.75 2.137c-1.411 3.232-3.175 5.826-5.25 8.676l-2.125 2.957L369 511h-2l-1 4h-2l-.867 1.762a103 103 0 0 1-2.203 4.133c-1.885 3.427-2.907 5.912-3.368 9.855.202 3.247.202 3.247 1.938 5.563L361 538v2l1.688.375C365 541 365 541 367.039 542.02c7.987 2.644 18.021 1.566 26.285.585 3.298-.782 5.693-1.74 8.246-3.988 1.726-2.103 3.05-4.267 4.43-6.617l2.445-4.094a760 760 0 0 0 5.188-8.883c3.186-5.467 6.532-10.39 10.867-15.023 5.891-6.133 5.891-6.133 9.105-13.832.534-3.383.975-6.769 1.395-10.168.575-4.02 1.238-8.01 2-12l.371-2.293c.958-4.075 2.43-6.478 5.211-9.66a531 531 0 0 1 4.72-4.892c6.967-7.288 12.768-16.47 15.303-26.32 1.27-9.13 1.135-18.02-1.605-26.835-.187-3.375-.187-3.375 0-6l1-1c3.188-.312 3.188-.312 5.102.008C469 392 469 392 470.586 394.18c1.649 3.22 3.058 6.466 4.414 9.82l.794 1.94c3.043 7.509 5.686 15.006 7.468 22.923.644 2.987.644 2.987 1.469 5.212 2.907 8.82 2.793 17.631 2.77 26.82-.001 2.77.04 5.537.085 8.306.067 10.186-.935 18.79-4.392 28.38-1.755 5.026-2.398 10.015-3.02 15.274-.508 3.663-1.145 6.515-3.139 9.668L475 525h-2l-.812 1.75c-1.217 2.306-2.491 4.27-4.188 6.25h-2l-.812 1.688c-1.29 2.51-2.727 4.899-4.188 7.312-1.583 3.165-1.178 6.54-1 10 .417 2.355.417 2.355 1 4h3v2c4.156 1.01 8.044 1.102 12.313 1.063l3.8-.028L483 559l1 4q-3.15 2.011-6.312 4l-1.803 1.156c-1.597 1-3.24 1.926-4.885 2.844h-3v2a4549 4549 0 0 1-6.895 3.441 650 650 0 0 0-6.43 3.274c-6.723 3.44-13.455 6.491-20.55 9.11-2.964 1.115-5.849 2.343-8.75 3.612C410.133 598.802 394.145 602.71 378 606l-2.29.473c-47.13 9.481-96.768 4.61-142.198-10.235-4.877-1.644-9.702-3.408-14.512-5.238l-2.195-.827c-43.739-16.65-83.81-47.221-113.498-83.227-14.502-17.994-26.407-37.182-36.87-57.759l-1.051-2.049C63.935 444.231 63 442.295 63 439h-2l-.595-1.725q-1.355-3.92-2.718-7.837l-.935-2.713c-1.348-3.873-2.699-7.705-4.37-11.452-2.28-5.397-3.433-11.065-4.767-16.751-.654-2.684-1.374-5.345-2.1-8.01-3.497-13.329-5.343-26.367-6.39-40.074l-.186-2.4c-3.284-43.569 3.294-85.573 18.164-126.555a480 480 0 0 0 2.17-6.163C67.106 193.49 80.437 172.701 94 154l2.133-2.953L98 149h3l.41 2.02c1.79 7.664 4.855 13.697 9.59 19.98l2.223 2.191L115 175v2h2c-.483 5.068-2.148 7.851-5 12-3.726 9.216-3.069 18.646-2.873 28.4.1 9.652-.661 18.896-4.502 27.85-5.383 14.51-7.791 29.98-5.3 45.29L100 294q.504 3 1 6h2l2 6h2v2l1.563.375c2.437.625 2.437.625 5.562 1.75 6.425 1.45 11.406.629 17.688-1.29 12.284-4.214 22.067-10.535 31.774-19.103 5.208-4.578 5.208-4.578 8.413-5.732 3.555-.468 6.585-.08 10 1 6.175 4.191 11.117 9.657 15 16v2h2l1 5h2l1.313 3.125A145 145 0 0 0 208 321l1.262 2.641L211 326c2.455.743 2.455.743 5.304.615l3.354.03 3.7-.044 3.917.013c3.597.011 7.192-.009 10.789-.034 3.875-.021 7.75-.014 11.625-.01q10.076.002 20.15-.041c9.711-.04 19.422-.054 29.133-.06 15.755-.011 31.51-.045 47.264-.092q22.96-.07 45.919-.102l2.858-.004 14.193-.02c39.265-.051 78.53-.14 117.794-.251q.112-8.664.165-17.328.022-2.934.061-5.867c.304-23.164-2.266-46.023-13.444-66.692-5.56-9.64-12.751-17.445-22.032-23.613-13.744-7.712-27.192-9.614-42.75-9.5-13.741.26-26.666 4.107-39.812 7.813-20.82 5.787-41.567 10.873-62.842 14.71-2.484.456-2.484.456-5.346 1.477-15.663 2.92-31.91 3.724-47.344-.652-5.619-2.072-10.885-4.68-15.656-8.348v-2l-2.187-.687c-3.35-1.563-5.285-3.649-7.813-6.313l-2-1v-2l-1.652-.746c-3.885-2.075-7.273-4.838-10.79-7.477-2.498-1.913-2.498-1.913-5.558-2.777v-2l-1.992-.715c-3.89-1.661-7.473-3.737-11.133-5.847a1403 1403 0 0 0-4.258-2.442l-1.887-1.088c-1.888-1.05-1.888-1.05-4.73-1.908v-2c-.675-.1-1.35-.199-2.047-.3-3.621-.858-6.84-2.336-10.203-3.887-6.63-3-13.33-5.534-20.253-7.77-2.592-.865-4.984-1.67-7.207-3.287L183 162c-.245-2.486-.245-2.486-.082-5.46l.124-3.338.145-3.577c.263-12.879-1.673-23.616-6.187-35.625l-.809-2.202c-2.571-7.457-2.571-7.457-7.183-13.665-2.06-1.379-2.06-1.379-5.008-1.133l-3 1c-2.249 2.477-2.249 2.477-4 5h-2l-.379 1.594c-.773 2.994-1.674 5.943-2.559 8.906-2.847 10.006-4.316 19.688-4.545 30.07-.122 3.165-.362 5.18-2.052 7.899L144 153c-2.312-.223-2.312-.223-5-1-1.625-1.934-1.625-1.934-3-4.437l-1.52-2.739L133 142l-1.387-2.605c-3.086-5.978-5.486-12.013-7.613-18.395 4.644-7.996 13.932-14.216 21-20 .545-.447 1.09-.893 1.65-1.354 8.077-6.562 16.622-12.166 25.524-17.542a575 575 0 0 0 4.994-3.065c4.98-3.062 4.98-3.062 6.832-4.039h2v-2q3.868-2.013 7.75-4l2.21-1.156 2.15-1.094 1.967-1.016C202 65 202 65 206 65v-2c67.823-26.367 136.71-33.134 207-11"/><path fill="#FCFDFD" d="m479 253 3 1c.86 1.75.86 1.75 1.535 4l.764 2.438.764 2.562a629 629 0 0 0 1.535 5l.672 2.25.73 1.75c2.341 1.17 3.678 1.102 6.281 1.063l2.551-.024L499.5 273q2.61-.038 5.219-.062l2.342-.036C509 273 509 273 511 274v3l-3 2h-3v2c-2.498 1.84-5.1 3.479-7.715 5.148L495 288c-.802 1.88-.802 1.88-1 4 .889 2.77 1.835 5.382 2.938 8.063C500 307.647 500 307.647 500 311c-2.25-.25-2.25-.25-5-1a89 89 0 0 1-4-4 142 142 0 0 0-4-3.187l-2-1.543c-2.077-1.319-3.554-2.01-6-2.27-2.636 1.892-2.636 1.892-5 4h-2v2a197 197 0 0 1-5 3c-1.751 1.582-1.751 1.582-3 3l-3-1c.677-3.83 1.736-7.387 3-11.062 1.13-3.295 2.218-6.543 3-9.938a4014 4014 0 0 0-5.125-3.75l-3.027-2.215a112 112 0 0 0-6.536-4.348L450 277v-3c7.69-1.06 15.245-1.1 23-1v-4h2l.313-2.937c.633-4.549 2.135-8.757 3.687-13.063M401 253l3 1a92 92 0 0 1 2.688 8.375l.681 2.367c.908 3.224 1.631 5.887 1.631 9.258h23l-1 4c-1.523 1.484-1.523 1.484-3.375 2.75l-1.836 1.297C424 283 424 283 421 283v2l-2.5 1.25L416 288c-.669 2.829-.669 2.829 0 6 .704 1.697 1.413 3.394 2.2 5.055 1.444 3.51 2.084 7.23 2.8 10.945a85 85 0 0 1-7-2v-2l-4-1v-2c-3.344-1.93-6.121-2.895-10-3-2.836 1.49-5.222 3.466-7.687 5.5a360 360 0 0 1-3.95 3.156l-1.74 1.432c-.536.3-1.071.602-1.623.912l-3-1c.659-4.348 2.275-7.974 4-12 .691-2.779.691-2.779 1-5h2c.124-2.317.124-2.317-1-5-2.484-2.165-5.261-3.838-8.062-5.562a299 299 0 0 1-4.473-2.817l-2.012-1.236L372 277v-4l23 1c1.235-6.161 1.235-6.161 2.453-12.326l.477-2.322.476-2.38C399 255 399 255 401 253M243 253l4 1 .443 1.636q.993 3.652 1.994 7.302l.698 2.576.674 2.45.618 2.27c.427 1.771.427 1.771 1.573 2.766 1.56.157 3.125.25 4.691.316l2.862.127 3.01.12 3.021.13q3.708.16 7.416.307v3c-2.375 2.188-2.375 2.188-5 4h-2v2h-3v2a125 125 0 0 1-6 4q1.182 3.626 2.375 7.25l.672 2.066c.906 2.746 1.808 5.398 3.117 7.98C265 308 265 308 265 311c-3.483-.645-6.094-1.982-9-4v-2l-2.187-.75c-3.06-1.36-5.28-3.08-7.813-5.25-2.575 1.189-4.766 2.52-7.125 4.125L236 305h-2v2c-2.639 1.783-4.972 2.99-8 4 .798-5.557 2.417-10.654 4.16-15.977 1.018-3.142 1.018-3.142.84-7.023-1.564-1.656-1.564-1.656-3.719-3.016l-2.324-1.601-2.457-1.633-2.457-1.68A618 618 0 0 0 214 276l1-3 23 1 1.938-7.687.605-2.394c.91-3.626 1.768-7.243 2.457-10.919"/><path fill="#FDFDFD" d="m322 254 3 1a77 77 0 0 1 2.688 7.438l.681 2.103C330 269.661 330 269.661 330 272c2.79.93 4.765 1.187 7.668 1.316l2.705.127 2.815.12 2.85.13q3.48.159 6.962.307v3c-2.336 2.043-2.336 2.043-5.375 4.188l-3.023 2.167L342 285h-2v2h-3c.373 6.464 2.28 11.474 4.941 17.363C343 307 343 307 343 310l-3 1c-2.34-1.547-2.34-1.547-4.937-3.75l-2.59-2.172L330 303c-2.061-1.724-2.061-1.724-4-3-3.145-.307-4.978-.007-8 1v2a157 157 0 0 1-5 3l-2.625 2.188L308 310h-3c1.311-7.111 3.017-14.047 5-21q-3.15-2.475-6.312-4.937c-.595-.47-1.19-.938-1.803-1.42-2.612-2.029-4.724-3.59-7.885-4.643l-1-4 23-1 1.875-6.687c1.18-4.212 2.415-8.285 4.125-12.313"/><path fill="#0F67B3" d="M358 38c6.169-.24 11.936.665 18 1.75l3.09.547c8.115 1.477 15.998 3.35 23.91 5.703l3.168.895c8.113 2.368 15.921 5.396 23.766 8.52A158 158 0 0 0 440 59v2h4v2h4v2l2.063.313c3.566.834 6.6 2.182 9.937 3.687v2h4v2l1.75.375c2.308.641 4.135 1.505 6.25 2.625l3.063 1.5C478 79 478 79 481 81v2h3v2l5 2v2l3-1a141 141 0 0 1 5 5v2l1.809.313C501 96 501 96 502.598 97.375L504.062 99c2.104 2.322 2.842 2.968 5.938 4v2l2 1-2 1c-3.769-2.398-6.855-4.855-10-8a396 396 0 0 0-5-3l-3-3-2.687-1.562L487 90v-2h-3v-2l-1.715-.312c-2.7-.813-4.546-2.068-6.848-3.688-2.566-1.8-4.442-3.002-7.437-4v-2l-1.744-.384c-2.278-.622-4.221-1.448-6.346-2.471l-2.357-1.128-2.49-1.204-5.16-2.465-2.544-1.219c-24.05-11.515-48.92-19.391-75.199-24l-2.24-.394a504 504 0 0 0-5.9-.962C361 41 361 41 359.074 39.414zM469 203l1 2c-.76-.01-1.52-.02-2.304-.032-3.503-.042-7.006-.067-10.509-.093-1.195-.017-2.39-.034-3.623-.05-8.46-.047-16.495.485-24.564 3.175-1.705.333-3.414.643-5.125.938-4.996.884-9.93 1.927-14.875 3.062v2l-3.562.375c-4.672.58-9.197 1.505-13.438 3.625l-6 1-2 1-3.074.438c-4.322.619-8.496 1.547-12.738 2.562l-2.311.54c-4.044.922-4.044.922-7.877 2.46-2.037.306-4.076.508-6.125.719-1.96.195-1.96.195-3.875 1.281-2.855.4-5.697.751-8.562 1.063l-2.346.275c-5.395.597-10.665.743-16.092.662v2c-6.098.22-11.216.012-17-2v-1l1.781-.06c19.024-.672 36.737-3.068 55.293-7.28 2.744-.619 5.49-1.22 8.238-1.816 10.906-2.387 21.713-5.1 32.5-7.969l3.848-1.02c5.903-1.588 11.728-3.266 17.509-5.252 14.718-4.846 30.643-3.587 45.831-2.603"/><path fill="#0F66B3" d="m308 36 1 3-2.585.272c-32.251 3.465-65.23 8.28-94.524 23.122C210 63 210 63 207.755 62.602L206 62l1.662-.823a270 270 0 0 0 4.883-2.524c7.417-3.859 14.858-6.725 22.83-9.215l3.713-1.17C260.763 41.57 285.168 35.093 308 36"/><path fill="#0F67B3" d="M99 270c1.316 1.927 1.965 3.598 2.165 5.924.032 2.278.01 4.548-.04 6.826l-.027 2.402c-.024 1.95-.06 3.899-.098 5.848h2l-.187 2.25L103 296a72 72 0 0 0 3 4l.313 2.063L107 304c4.26 2.5 7.941 3.915 12.875 4.313 9.545-.14 18.45-4.047 26.613-8.72 3.115-1.975 6.013-4.143 8.856-6.491L157 292h3v2c-6.93 6.156-14.35 10.681-23 14l-2.336.93c-5.397 1.988-10.881 3.395-16.664 3.07-3.81-1.035-7.393-2.402-11-4v-2h-2l-2-6h-2c-4.919-17.726-4.919-17.726-3.61-25.242.547-1.945.547-1.945 1.61-4.758M587 509h3c-2.402 5.257-6.077 9.657-9.6 14.196a536 536 0 0 0-2.773 3.604c-8.009 10.443-16.97 19.836-26.252 29.138l-1.76 1.77q-2.506 2.513-5.03 5.007l-1.525 1.528c-2.513 2.464-4.78 4.426-8.06 5.757v-3l4-2v-2h2v-2h2v-2c1.504-1.48 1.504-1.48 3.563-3.187 7.095-5.664 7.095-5.664 12.437-12.813h2v-2h2l.816-1.79c1.185-2.211 2.423-3.749 4.121-5.585 3.44-3.847 6.678-7.826 9.875-11.875l1.455-1.826c2.242-2.852 4.3-5.576 5.733-8.924h2z"/><path fill="#1067B3" d="M116 571h3v2h2v2l2.875.75L127 577c1.375 2.125 1.375 2.125 2 4h2v2h4v2h2v2l3-1v3h3v2h3v2h3v2h3v2h3v2h4v2h3v2h3v2h4v2h4v2l1.734.402c2.243.592 4.352 1.33 6.516 2.16l2.14.817L185 613l-1 3c-5.703-1.627-10.68-4.332-15.875-7.125l-2.664-1.418A1943 1943 0 0 1 159 604v-2l-1.625-.312c-3-.869-5.613-2.244-8.375-3.688v-2l-6-2v-2l-2.125-.75c-3.27-1.422-6.016-3.122-8.875-5.25v-2h-3a179 179 0 0 1-4-4 750 750 0 0 0-6-4c-1.875-1.625-1.875-1.625-3-3z"/><path fill="#0F67B3" d="M194 619h4v2h5v2l1.836.297c5.63 1.005 10.648 2.536 15.914 4.758 2.706 1.137 5.454 2.055 8.25 2.945l2.625.938c6.682 2.103 13.492 3.714 20.375 5 3.085.655 4.024 1.082 6.563 3.187L260 642c-5.918-.73-11.64-1.99-17.437-3.375l-2.737-.633c-5.473-1.3-10.588-2.946-15.826-4.992-1.598-.479-3.202-.94-4.812-1.375-4.729-1.378-9.045-3.32-13.493-5.418-3.818-1.71-7.703-2.963-11.695-4.207zM258 603c4.017.538 7.998 1.169 11.984 1.902 29.327 5.323 57.74 5.758 87.353 3.282 2.217-.153 4.441-.184 6.663-.184v2l-3.25.438c-3.476.45-3.476.45-5.728 1.087-2.108.495-3.968.615-6.13.636l-2.44.029-2.632.013-2.766.02c-2.976.018-5.952.024-8.929.027l-3.062.006c-16.226.008-32.076-.81-48.172-2.9-2.778-.342-5.551-.592-8.34-.825-3.685-.356-6.765-1.083-10.176-2.593l-2.54-1.098L258 604zM375 385l1 2c-19.692 5.576-38.417 10.82-59 10l-1-2c4.03-.925 7.936-1.225 12.063-1.437a151 151 0 0 0 39.234-7.68c2.74-.895 4.843-1.051 7.703-.883M554 387c2.125.063 2.125.063 5 1 3.192 2.97 5.616 5.847 7 10 .662 7.644.195 14.347-2.71 21.477-1.982 3.877-4.458 7.228-7.29 10.523l-4-1-1-11 1 2h2v4c2.506-.896 2.506-.896 5-3 3.184-5.763 3.69-12.58 4.074-19.035.078-3.143.078-3.143-1.386-6.59L560 393l-2-3c-2.05-1.192-2.05-1.192-4-2z"/><path fill="#1067B3" d="m96 148 3 1c-.51.646-1.02 1.292-1.547 1.957C86.568 165.065 77.531 180.382 69 196l-2-1c3.617-12.823 12.728-24.248 20.125-35.125 1.474-2.26 2.747-4.432 3.875-6.875h2l.938-1.937C95 149 95 149 96 148"/><path fill="#0F67B3" d="M448 583v2c-10.783 5.125-21.537 9.364-33 12.74l-2.723.815-2.43.702L408 600l-1 2c-1.929.266-3.86.524-5.797.719-3.901.498-7.676 1.517-11.203 3.281-2.037.229-4.08.41-6.125.563l-3.32.253L378 607v-2l3.758-.742c11.548-2.396 22.751-5.525 33.93-9.258l3.791-1.257c6.549-2.225 12.88-4.663 19.13-7.63C445.296 583 445.296 583 448 583"/><path fill="#0062BA" d="m257 45-1 2c-1.68.683-1.68.683-3.875 1.297l-2.462.707-2.663.746c-6.789 1.968-13.523 4.018-20.187 6.375l-2.12.75c-4.444 1.601-8.735 3.388-12.931 5.559C210 63 210 63 207.77 62.598L206 62l1.665-.824q2.438-1.23 4.847-2.512c7.713-4.026 15.512-6.929 23.8-9.539l3.706-1.219 3.595-1.148 3.212-1.027c3.483-.802 6.614-.857 10.175-.731"/><path fill="#0F67B3" d="M439 626v2a305 305 0 0 1-22.812 7.563l-3.157.918c-7.62 2.186-15.232 4.077-23.031 5.519v-3l2.209-.563c17.484-4.444 17.484-4.444 34.854-9.312l2.085-.614C437.524 626 437.524 626 439 626"/><path fill="#1067B3" d="M524 472h2q.074 8.862.11 17.725.015 3.015.04 6.029c.025 2.89.036 5.778.045 8.668l.032 2.721v2.547l.014 2.234c-.276 2.381-1.062 4.006-2.241 6.076l-1-1c-.101-2.561-.14-5.095-.133-7.656l-.003-2.353q0-2.476.006-4.953c.005-2.5 0-5-.007-7.499q0-2.41.004-4.82l-.006-2.236c.023-5.225.494-10.297 1.139-15.483M42 264h3l-.335 1.962C42.182 280.613 40.184 295.186 39 310h-2c-.964-3.865-.965-7.024-.512-10.973l.393-3.478.431-3.611.397-3.53c2.372-20.57 2.372-20.57 4.291-24.408M412 518h2c-1.565 4.25-3.636 8.138-5.875 12.063l-1.027 1.853c-2.004 3.524-3.958 6.499-7.098 9.084-6.191 2.866-12.274 3.325-19 3l-1-2a3381 3381 0 0 1 7.813-1.5l2.236-.434c3.029-.575 5.86-1.066 8.951-1.066l1-3q1.996-2.503 4-5a217 217 0 0 0 3.688-6.25c3.224-5.662 3.224-5.662 4.312-6.75M61 206h2c-.634 5.748-2.696 10.734-4.812 16.063-2.814 7.18-5.34 14.27-7.301 21.734L50 246l-3 1c.59-6.296 2.539-11.786 4.75-17.687l1.086-2.942c2.552-6.865 5.22-13.664 8.164-20.371M434 470l3 1c-.23 3.003-.483 6-.75 9l-.187 2.543c-.543 5.829-1.852 10.518-5.063 15.457-1.574 1.842-3.182 3.384-5 5l-3-1 2-3h2c4.773-9.115 5.858-18.92 7-29"/><path fill="#0165BB" d="M109 200c2 3 2 3 2.227 6.003-.01 1.199-.02 2.398-.032 3.634l-.02 3.935-.05 4.115q-.016 2.076-.027 4.15-.036 5.082-.098 10.163h-2c-.971-6.49-1.151-12.818-1.125-19.375l-.012-3.02.004-2.878.004-2.607C108 202 108 202 109 200"/><path fill="#1067B3" d="M460 424h2c-.24 6.372-2.065 10.786-5.234 16.3-2.56 3.915-5.517 7.345-8.766 10.7l-3-1 2-3h2l.781-1.602c2.08-4.093 4.342-8.09 6.563-12.109 1.54-3.059 2.667-6.016 3.656-9.289"/><path fill="#0F67B3" d="M300 508h2c-.34 3.359-.762 5.63-2.602 8.492l-2.023 2.383-2.164 2.578L293 524l-2.086 2.422A527 527 0 0 1 286 532l-3-2a105 105 0 0 1 4-5h2l.781-1.719c1.787-3.345 4.185-6.12 6.563-9.062 1.505-2.016 2.618-3.935 3.656-6.219"/><path fill="#1067B3" d="M297 394h2c-.903 4.26-3.026 7.538-5.312 11.188-3.36 5.464-6.281 10.848-8.688 16.812l-2-1c2.588-8.901 6.756-16.405 12-24zM525 312l1 2h2q.039 2.969.063 5.938l.035 3.34L528 326l-1 1c-2.53.073-5.033.092-7.562.063l-2.155-.014q-2.64-.02-5.283-.049v-2c4.053-.982 7.839-1.082 12-1l.5-3.75.281-2.11c.287-2.445.287-2.445.219-6.14"/><path fill="#0062BA" d="m227.508 341.121 2.547.072q4.035.116 8.07.245l5.465.158q6.705.195 13.41.404v1q-5.344.257-10.687.5l-3.177.147c-6.654.291-13.247.413-19.906.193L221 344l-2 2h-2v-4c3.286-1.643 6.907-.997 10.508-.879"/><path fill="#0F68B4" d="M471 205c7.406.128 13.124 2.459 19.602 5.945 4.675 2.827 8.58 6.166 12.398 10.055l-2 2v-2h-2v-2l-1.875-.937L493 216v-2l-1.773-.383c-2.186-.606-3.87-1.404-5.852-2.492-4.604-2.38-9.386-3.776-14.375-5.125z"/><path fill="#1067B3" d="M640 385h2c.207 5.427-.482 10.122-1.812 15.375l-.502 2.191c-.518 2.082-.518 2.082-1.686 5.434l-3 1c1.375-8.074 3.1-16.034 5-24"/><path fill="#0F67B3" d="M357 528h3v3c.512 3.12.512 3.12 2 6 3.018 1.452 3.018 1.452 6 2v2l2.875-.187L374 541l2 3c-4.325-.279-8.214-.718-12.312-2.187-3.321-2.24-4.87-4.248-6.688-7.813-.25-3.375-.25-3.375 0-6"/><path fill="#1067B3" d="M237 441h2v23l-3-1c-.029-3.104-.047-6.208-.062-9.312l-.026-2.67-.01-2.569-.016-2.364C236 444 236 444 237 441"/><path fill="#0F68B4" d="M388 640v2c-7.33 2.002-14.41 3.513-22 4v-3a4752 4752 0 0 1 9.313-1.5l2.67-.434 2.568-.41 2.364-.38C385 640 385 640 388 640"/><path fill="#1067B3" d="M182 135h2c.029 3.104.047 6.208.063 9.313l.025 2.67.01 2.568.016 2.364C184 154 184 154 183 157h-2a76 76 0 0 1-1-5l1-2c.07-3.055-.003-6.097-.062-9.152C181 138 181 138 182 135M520.188 340.938l3.292.027L526 341a875 875 0 0 1 2 4.375l1.125 2.46C530 350 530 350 530 352h-2v-2l-2-1a78 78 0 0 1-2-5l-2.082.07-2.73.055-2.708.07C514 344 514 344 511 342c3.285-1.095 5.737-1.1 9.188-1.062M611 330h1c1.326 5.967 1.088 11.926 1 18h-4q.212-3.657.438-7.312l.119-2.092c.192-3.068.466-5.666 1.443-8.596M276 444h2v18l-3 1c-.103-6.417.255-12.627 1-19M529 442h2c.223 6.728-.05 12.54-2 19h-2c.491-6.366.997-12.693 2-19"/><path fill="#0062BA" d="M489 457h2v17h-2l-1-6h-1c-.24-4.087.577-7.177 2-11"/><path fill="#1067B3" d="M541 394h1l1 5h1v9h2l2 4h-3c-2.388-2.739-3.72-4.747-4.512-8.297-.463-3.685-.678-6.133.512-9.703M316 266h2a236 236 0 0 1-1 7l-1 1c-2.353.073-4.708.084-7.062.063l-3.91-.028L302 274l-1-2h14zM462 405h2v17l-3 1q-.04-3.657-.062-7.312l-.026-2.092c-.015-3.144.086-5.59 1.088-8.596"/><path fill="#0F67B3" d="M257 549c-.375 1.938-.375 1.938-1 4-2.525 1.262-4.312 1.099-7.125 1.063l-2.758-.028L244 554v-3l2.688.125C250.45 550.983 253.385 549 257 549"/><path fill="#0D66B4" d="M262 537c3.426.44 5.063 1.042 8 3 3.163-.804 3.163-.804 6-2l1 2-2 3c-2.812.375-2.812.375-6 0-2.625-1.375-2.625-1.375-5-3a174 174 0 0 0-4-2z"/><path fill="#1067B3" d="M394 268h2l-1 6h-15l-1-2h14zM159 86h2l1 3-12 9-2-2 3-1v-2c1.75-1.437 1.75-1.437 4-3 1.351-.976 2.69-1.97 4-3z"/><path fill="#0E69B4" d="m488 601 2 2a882 882 0 0 1-8 5l-1.984 1.258c-1.626.993-3.318 1.877-5.016 2.742l-3-1c3.063-2.43 6.237-4.292 9.688-6.125 3.368-1.638 3.368-1.638 6.312-3.875"/><path fill="#1067B3" d="m341 36 13 1-1 3-12-1zM115 521c3.903 1.587 6.335 4.134 9.25 7.125l2.703 2.758L129 533l-2 2v-2h-2v-2h-2v-2l-1.875-.75C119 527 119 527 117.75 524.875L117 523h-2z"/><path fill="#0E69B5" d="M229 391h1l.148 1.934.227 2.503c.07.824.14 1.648.21 2.497L231 400l2 1-1 10h-1c-2.114-6.2-2.866-12.451-3-19z"/><path fill="#1067B3" d="M611 303h2l-1 17c-2-3-2-3-2.23-5.594l.043-2.906.019-2.906C610 306 610 306 611 303M272 642l12 1 1 3-12-1zM622 446h2c-.535 5.348-2.467 9.358-5 14l-2-2z"/><path fill="#0F67B3" d="m103 155 1 3h2v4h2l.875 2.438L110 167l2 1-1 3c-3.7-3.303-5.83-6.583-8-11-.25-2.937-.25-2.937 0-5"/><path fill="#1067B3" d="M561 105c3.884 1.55 6.03 4.005 8.75 7.125l2.422 2.758L574 117l-3 1v-2h-2v-2l-3-1c-1.687-1.937-1.687-1.937-3-4v-2h-2zM238 266h2c-.875 5.75-.875 5.75-2 8h-8l-1-2 7-1z"/><path fill="#0F67B3" d="m393 397 3 1v4h2v2l2 1c.625 3.063.625 3.063 1 6-1.437-1.25-1.437-1.25-3-3-.687-2.187-.687-2.187-1-4h-2c-1.46-2.647-2-3.894-2-7"/><path fill="#1067B3" d="M131 110h3v2c-1.645 1.762-1.645 1.762-3.812 3.688l-2.145 1.949L126 119l-3-1 5-5 1.625-1.812zM144 99h2c-.816 2.203-1.753 3.768-3.469 5.379A211 211 0 0 1 138 108l-2-2c1.375-1.5 1.375-1.5 3-3h2v-2zM305 302l2 1-2 9h-3l-1-4h2l.438-2.437L304 303z"/><path fill="#0E69B5" d="M249 259h1l.516 2.266.734 2.984.703 2.953c1.165 3.112 2.56 4.64 5.047 6.797-2.312 0-2.312 0-5-1-2.221-3.635-2.962-7.285-3.187-11.5z"/><path fill="#1067B3" d="M608 476h2c-1.258 4.508-2.904 7.491-6 11 0-4 0-4 .875-5.922z"/><path fill="#0F69B4" d="m462 554 10 3v3c-2.763-.523-5.326-1.109-8-2v-2l-3-1z"/><path fill="#1067B3" d="M282 422h2c-.537 3.377-1.11 6.697-2 10h-3z"/><path fill="#0F68B4" d="M515 241h2c3 5.625 3 5.625 3 9-1.875-.687-1.875-.687-4-2-1.312-2.5-1.312-2.5-2-5z"/><path fill="#1067B3" d="m261 640 9 1 1 3-3.875-.312-2.18-.176L263 643zM337 288l2 1c1.052 3.682 1.089 7.19 1 11-2.48-3.719-3.085-6.635-4-11zM609 283h2l-1 16h-1q-.29-3.155-.562-6.312l-.317-3.551C608 286 608 286 609 283M529 572l2 2-7 6-2-2 3-1v-2c2-1.625 2-1.625 4-3"/><path fill="#0F68B4" d="M416 287h2v2l-1 1h1l1 9h-2c-1.798-3.82-2.287-6.784-2-11z"/><path fill="#1067B3" d="M213 58h4v2c-4.58 2.202-4.58 2.202-7 3-2.437-.312-2.437-.312-4-1l1.813-.875c2.38-1.172 2.38-1.172 5.187-3.125"/><path fill="#0F67B3" d="M185 615h4v2h4v3c-2.929-.628-5.361-1.586-8-3z"/><path fill="#1067B3" d="M526 283h2v9l-3-1zM451 271l4 2v1h-5l-1 4-2-4zM522 518h2c-.41 2.955-.876 4.817-2.562 7.313L520 527l-1-3c1.438-3.187 1.438-3.187 3-6"/><path fill="#D2EBFB" d="M534 516h2c-1.143 2.91-2.2 4.171-4.625 6.25L529 524v-3c2.375-2.687 2.375-2.687 5-5"/><path fill="#1067B3" d="M626 436h2c-.498 3.735-.875 5.812-3 9l-2-1zM278 434h2l-1 9h-2c-.125-6.75-.125-6.75 1-9M219 348c1.488 1.176 1.488 1.176 3 3 .293 2.48.293 2.48.188 5.188l-.083 2.73L222 361c-1.671-2.962-2.327-5.37-2.625-8.75l-.227-2.422zM526 462h2c.125 5.75.125 5.75-1 8h-2c-.125-5.75-.125-5.75 1-8M411 437h2l-1 13-2-1a920 920 0 0 1-.062-5.437l-.036-3.06L410 438z"/><path fill="#0E69B5" d="M401 411c3 2 3 2 4.188 3.813.936 2.521.96 4.517.812 7.187-2.007-2.554-3.74-4.996-5-8z"/><path fill="#1067B3" d="M516 382h2v8l-3 1z"/><path fill="#0E69B5" d="M479 298a78 78 0 0 1 5 2l1 2h-10z"/><path fill="#0F67B3" d="M244 298c2.375.813 2.375.813 5 2l2 3-9-2z"/><path fill="#1067B3" d="M570 176h2v2l2 1v2l2 1-1 3c-1.437-1.25-1.437-1.25-3-3a140 140 0 0 1-1-4l-2-1z"/><path fill="#0F68B4" d="M515 530h3l-2 6h-3c.3-1.673.636-3.34 1-5z"/><path fill="#1067B3" d="M226 302h2c-.523 2.763-1.109 5.326-2 8l-3-1z"/><path fill="#0F68B4" d="M168 99c1.875.125 1.875.125 4 1 1.25 3.063 1.25 3.063 2 6-1.875-.687-1.875-.687-4-2-1.25-2.625-1.25-2.625-2-5"/><path fill="#1067B3" d="M600 490h2c-1.074 2.915-1.778 4.778-4 7l-1-4h2zM635 410h2l-2 7h-2q.45-3.008 1-6zM642 376h2l-1 8h-2zM38 348h2v8l-3-1z"/><path fill="#0165BB" d="M400 299c2.938.375 2.938.375 6 1l1 2h-7z"/><path fill="#1067B3" d="M463 298h2l-2 7h-2q.45-3.008 1-6zM44 256h2l-1 7h-2z"/></svg>