<svg xmlns="http://www.w3.org/2000/svg" width="1165" height="1200"><path fill="#E8D9D0" d="M562.348-.406c4.223-.146 7.589-.039 11.527 1.61 6.52 3.752 6.52 3.752 8.402 7L583 10h2c1.322 1.49 1.322 1.49 2.836 3.594l1.707 2.347 1.832 2.559 3.836 5.281 1.94 2.68c2.579 3.542 5.21 7.043 7.849 10.539 3.74 4.963 7.44 9.953 11.11 14.967a936 936 0 0 0 18.053 23.817c3.727 4.768 7.385 9.57 10.892 14.505a260 260 0 0 0 4.578 6.172c8.534 11.313 8.534 11.313 9.32 17.602.15 6.212-1.44 11.105-4.293 16.562-2.753 3.938-6.375 6.298-10.66 8.375-4.228 1.253-8.382 1.107-12.754 1.063l-2.594-.012c-3.65-.016-7.301-.044-10.952-.072q-4.008-.025-8.016-.042l-2.442-.025c-6.2-.026-11.988.52-18.242 1.088v80l16 1c2.76.37 5.515.792 8.25 1.313l2.086.395q2.196.419 4.39.85c2.371.46 4.748.89 7.126 1.317 10.8 1.985 21.117 4.735 31.517 8.244 2.917.977 5.844 1.924 8.772 2.87q3.18 1.035 6.359 2.073l2.966.959c9.426 3.118 18.305 7.266 27.159 11.729l2.02 1.018q3.181 1.61 6.355 3.232l2.185 1.111c9.342 4.773 18.237 9.817 26.815 15.889l1.723 1.208c11.403 7.999 22.253 16.493 32.829 25.555q1.774 1.513 3.565 3.007c4.673 3.96 9.027 8.24 13.383 12.543l1.93 1.89 1.789 1.785 1.623 1.61L799 322v2h2c2.704 2.868 5.079 6.02 7.517 9.116q1.576 2 3.162 3.994c12.903 16.226 12.903 16.226 17.633 24.091a416 416 0 0 0 3.475 5.657 369 369 0 0 1 12.896 22.371c.943 1.774 1.895 3.542 2.848 5.31 5.686 10.64 10.951 21.41 15.032 32.774l.886 2.447C881.023 475.995 888.589 528.124 881 577l-.505 3.292A770 770 0 0 1 876 606l-.542 2.831c-2.371 11.956-6.07 23.41-10.02 34.919l-.72 2.098c-3.013 8.727-6.15 17.29-10.468 25.465-1.531 2.797-1.531 2.797-1.25 6.687l1.487.803c14.627 7.925 29.085 16.142 43.242 24.882l2.67 1.64 2.388 1.482c2.095 1.13 3.887 1.741 6.213 2.193l.814-2.17c1.2-2.862 2.595-5.434 4.163-8.111l1.77-3.034 1.878-3.185 1.92-3.261q1.882-3.192 3.77-6.38a610 610 0 0 0 4.107-7.082c3.715-6.352 7.375-11.66 13.578-15.777 4.288-2.144 8.578-2.477 13.324-2.39 4.668.68 8.853 2.648 12.676 5.39l1 3h2c3 5.625 3 5.625 3 9h2a345 345 0 0 1 1.5 3.75l.844 2.11C978 683 978 683 978 687h2c3.921 8.035 3.921 8.035 4.25 12.063L984 701h2a345 345 0 0 1 1.5 3.75l.844 2.11C989 709 989 709 989 713h2c3 6.5 3 6.5 3 11h2q1.008 2.653 2 5.313l1.125 2.988C1000 735 1000 735 1000 738h2c2.227 4.744 3.461 8.723 4 14h2c1.604 3.508 2.22 6.144 2 10h2q1.008 2.653 2 5.313l1.125 2.988C1016 773 1016 773 1016 776h2c3.55 10.21 3.55 10.21 2.563 15.625-1.79 6.155-5.447 11.202-9.875 15.75-6.459 3.905-13.518 5.119-20.938 5.75l-2.482.238c-5.99.563-11.989 1.02-17.995 1.39L967 815l-1 1c-1.693.299-3.396.539-5.102.754l-3.175.4-3.348.409-3.277.42c-5.417.67-10.634 1.064-16.098 1.017-2.339.29-4.672.63-7 1q-2.535.364-5.074.719l-2.756.385c-7.938 1.1-15.84 2.152-23.838 2.712-2.036.16-4.062.444-6.082.746-6.948.936-13.596.775-20.25-1.562-4.205-2.588-6.402-5.245-8.875-9.5-2.27-5.122-2.695-9.47-2.593-15.035.814-6.024 3.688-10.611 6.843-15.715l1.917-3.257A854 854 0 0 1 873 770a1730 1730 0 0 0 4.512-7.614 410 410 0 0 1 2.554-4.26c1.824-3.03 3.19-5.674 3.934-9.126l-2.074-.766c-3.39-1.43-6.548-3.165-9.739-4.984l-2.03-1.149c-7.735-4.395-15.41-8.898-23.082-13.403l-2.997-1.757-2.675-1.572A109 109 0 0 0 835 722v-2l-8-1-3.25 4.625-1.934 2.75a180 180 0 0 0-4.129 6.25L816 735h-2l-.582 2.043c-1.986 4.141-4.927 6.996-8.106 10.27q-1.917 2.01-3.832 4.023l-1.842 1.929a167 167 0 0 0-5.513 6.173c-5.9 6.81-12.319 12.65-19.348 18.28-2.624 2.156-5.106 4.404-7.59 6.72-5.995 5.439-12.51 10.017-19.187 14.562l-1.869 1.288c-12.222 8.38-25.165 15.35-38.282 22.219a794 794 0 0 0-6.888 3.657c-9.947 5.199-20.419 9.038-30.961 12.836l-2.1.758C641.215 849.29 613.24 854.305 585 856l-2.953.203c-38.094 2.569-76.825-2.517-113.055-14.548a440 440 0 0 0-6.242-1.987C420.538 826.308 384.179 802.847 351 774l-1.6-1.384c-1.431-1.24-2.853-2.49-4.275-3.741l-2.43-2.133L341 765v-2l-1.687-.687c-5.076-2.881-8.72-7.825-12.438-12.25l-1.425-1.69c-7.444-8.89-14.554-18.054-21.45-27.373l-2.75.938c-2.416.79-4.778 1.491-7.25 2.062v2l-1.873 1.05c-15.917 8.923-15.917 8.923-31.608 18.233-2.25 1.373-4.445 2.684-6.851 3.768L252 750l-1 3 3 1c1.188 3.563 1.188 3.563 2 7h2l1.8 3.27c5.124 9.274 10.332 18.49 15.707 27.622l1.34 2.292c.393.665.785 1.331 1.188 2.017 2.493 4.648 2.358 9.214 2.3 14.373-.424 4.332-1.554 7.45-3.722 11.2-2.732 3.77-5.69 6.707-9.613 9.226-10.103 3.939-21.51 2.104-31.973.57-4.372-.64-8.758-1.105-13.152-1.57-5.089-.545-10.136-1.164-15.187-2-6.638-1.08-13.305-1.667-20.004-2.215-5.215-.452-10.218-1.256-15.338-2.34-3.358-.637-6.618-.837-10.034-1.008-4.833-.25-9.524-.732-14.312-1.437q-2.08-.225-4.164-.43c-24.344-2.397-24.344-2.397-31.399-7.445-3.601-3.102-6.562-5.906-8.34-10.414-1.658-5.059-2.422-9.346-2.097-14.711.953-3.43.953-3.43 2.25-6.875l1.266-3.43c1.403-3.493 2.901-6.923 4.444-10.357 1.724-3.877 3.345-7.797 4.978-11.713 2.159-5.16 4.333-10.3 6.687-15.375 2.471-5.341 4.616-10.8 6.75-16.281 1.223-3.064 2.568-6.057 3.95-9.052 2.494-5.47 4.823-10.994 7.109-16.554l2.466-5.935a2263 2263 0 0 0 3.804-9.203c1.233-3 2.48-5.994 3.73-8.987l1.118-2.753c2.983-7.093 6.703-13.285 12.573-18.36 3.601-2.662 6.539-4.315 11-4.875 5.211-.454 9.926.015 14.875 1.75 6.203 3.36 10.09 8.25 14 14 2.184 3.591 4.222 7.256 6.25 10.938q1.7 3.047 3.402 6.093l1.695 3.035c2.435 4.322 4.94 8.601 7.465 12.871l1.292 2.186q1.447 2.44 2.896 4.877c3.039-.638 5.455-1.652 8.168-3.152l2.432-1.34 2.588-1.446 2.68-1.487a819 819 0 0 0 33.347-19.614C276 676 276 676 278 676l-1.54-3.375c-24.338-53.763-33.606-110.48-27.943-169.18 3.762-36.7 13.982-74.052 31.527-106.632a199 199 0 0 0 2.98-5.938c3.874-7.976 8.063-15.477 12.976-22.875q1.689-2.718 3.375-5.437c5.606-8.805 12.072-16.99 18.637-25.094a376 376 0 0 0 4.195-5.313l2.168-2.781 1.96-2.54c.55-.605 1.1-1.21 1.665-1.835h2l.766-1.75c1.384-2.523 2.95-4.224 4.98-6.262l2.271-2.283 2.42-2.392 2.473-2.457c5.776-5.686 11.685-10.89 18.09-15.856q4.4-3.665 8.785-7.348L372 285h2v-2a114 114 0 0 1 6.563-4.562l2.07-1.355c39.965-25.959 81.988-44.275 128.992-52.958l3.299-.616c9.135-1.588 17.65-1.955 27.076-2.509v-81c-16.05.118-16.05.118-32.1.27q-3.041.014-6.084.023l-3.132.046c-6.332.003-11.908-.585-17.684-3.339-2.812-2.312-2.812-2.312-5-5l-2.187-2.625c-2.48-4.619-3.807-9.114-3.813-14.375 1.374-8.114 5.219-13.648 10.313-19.937q2.183-2.778 4.363-5.56l2.21-2.795c3.127-4.005 6.123-8.1 9.114-12.208 5.582-7.626 11.288-15.15 17.032-22.655 4.448-5.82 8.824-11.688 13.155-17.595l3.43-4.652c1.71-2.32 3.416-4.643 5.107-6.977C548.605 6.234 548.605 6.234 557 2c3-2 3-2 5.348-2.406"/><path fill="#786A5A" d="M602 457c6.934.81 11.405 4.02 17 8 3.787 2.863 7.56 5.724 11 9l1 3 1.766.836c5.34 2.782 8.961 9.186 12.234 14.164 9.003 15.056 13.873 31.342 14.25 48.938-.138 7.886-.747 16.552-3.25 24.062l1.688.332c2.71.783 4.861 1.963 7.312 3.363l2.924 1.661 3.076 1.769 3.125 1.786a3451 3451 0 0 1 6.114 3.506 757 757 0 0 0 6.945 3.93c1.073.608 2.147 1.215 3.254 1.84l2.746 1.543L695 586v2c.699.095 1.397.19 2.117.29 3.446.849 5.95 2.28 9.008 4.085q1.836 1.08 3.672 2.156l2.01 1.188c2.431 1.42 4.88 2.805 7.334 4.187l5.234 2.969 2.579 1.443 2.382 1.362 2.142 1.21L733 608v2l2.063.25c3.718.95 6.66 2.817 9.937 4.75l5.582 3.242q3.116 1.816 6.23 3.633l3.12 1.816c5.6 3.267 11.178 6.567 16.733 9.91a828 828 0 0 0 11.023 6.462l2.418 1.4c8.472 4.89 16.991 9.694 25.511 14.498C822.094 659.614 828.55 663.3 835 667v2l1.98.207c4.23 1.11 7.599 3.244 11.332 5.48l5.125 3.02 2.739 1.624c3.862 2.283 7.742 4.536 11.62 6.79 7.181 4.175 14.353 8.362 21.481 12.625l3.042 1.815q2.867 1.713 5.727 3.44l2.595 1.55 2.266 1.364c2.038 1.056 3.851 1.635 6.093 2.085l.814-2.17c1.2-2.862 2.595-5.434 4.163-8.111l1.77-3.034 1.878-3.185 1.92-3.261q1.882-3.192 3.77-6.38a610 610 0 0 0 4.107-7.082c3.715-6.352 7.375-11.66 13.578-15.777 4.288-2.144 8.578-2.477 13.324-2.39 4.668.68 8.853 2.648 12.676 5.39l1 3h2c3 5.625 3 5.625 3 9h2a345 345 0 0 1 1.5 3.75l.844 2.11C978 683 978 683 978 687h2c3.921 8.035 3.921 8.035 4.25 12.063L984 701h2a345 345 0 0 1 1.5 3.75l.844 2.11C989 709 989 709 989 713h2c3 6.5 3 6.5 3 11h2q1.008 2.653 2 5.313l1.125 2.988C1000 735 1000 735 1000 738h2c2.227 4.744 3.461 8.723 4 14h2c1.604 3.508 2.22 6.144 2 10h2q1.008 2.653 2 5.313l1.125 2.988C1016 773 1016 773 1016 776h2c3.55 10.21 3.55 10.21 2.563 15.625-1.79 6.155-5.447 11.202-9.875 15.75-6.459 3.905-13.518 5.119-20.938 5.75l-2.482.238c-5.99.563-11.989 1.02-17.995 1.39L967 815l-1 1c-1.693.299-3.396.539-5.102.754l-3.175.4-3.348.409-3.277.42c-5.417.67-10.634 1.064-16.098 1.017-2.339.29-4.672.63-7 1q-2.535.364-5.074.719l-2.756.385c-7.938 1.1-15.84 2.152-23.838 2.712-2.036.16-4.062.444-6.082.746-6.948.936-13.596.775-20.25-1.562-4.205-2.588-6.402-5.245-8.875-9.5-2.27-5.122-2.695-9.47-2.593-15.035.814-6.024 3.688-10.611 6.843-15.715l1.917-3.257A854 854 0 0 1 873 770a1730 1730 0 0 0 4.512-7.614 410 410 0 0 1 2.554-4.26c1.824-3.03 3.19-5.674 3.934-9.126l-2.074-.766c-3.39-1.43-6.548-3.165-9.739-4.984l-2.03-1.149c-7.735-4.395-15.41-8.898-23.082-13.403l-2.997-1.757-2.675-1.572A109 109 0 0 0 835 722v-2l-8-1-3.25 4.625-1.934 2.75a180 180 0 0 0-4.129 6.25L816 735h-2l-.582 2.043c-1.986 4.141-4.927 6.996-8.106 10.27q-1.917 2.01-3.832 4.023l-1.842 1.929a167 167 0 0 0-5.513 6.173c-5.9 6.81-12.319 12.65-19.348 18.28-2.624 2.156-5.106 4.404-7.59 6.72-5.995 5.439-12.51 10.017-19.187 14.562l-1.869 1.288c-12.222 8.38-25.165 15.35-38.282 22.219a794 794 0 0 0-6.888 3.657c-9.947 5.199-20.419 9.038-30.961 12.836l-2.1.758C641.215 849.29 613.24 854.305 585 856l-2.953.203c-38.094 2.569-76.825-2.517-113.055-14.548a440 440 0 0 0-6.242-1.987C420.538 826.308 384.179 802.847 351 774l-1.6-1.384c-1.431-1.24-2.853-2.49-4.275-3.741l-2.43-2.133L341 765v-2l-1.687-.687c-5.076-2.881-8.72-7.825-12.438-12.25l-1.425-1.69c-7.444-8.89-14.554-18.054-21.45-27.373l-2.75.938c-2.416.79-4.778 1.491-7.25 2.062v2l-1.873 1.05c-15.917 8.923-15.917 8.923-31.608 18.233-2.25 1.373-4.445 2.684-6.851 3.768L252 750l-1 3 3 1c1.188 3.563 1.188 3.563 2 7h2l1.8 3.27c5.124 9.274 10.332 18.49 15.707 27.622l1.34 2.292c.393.665.785 1.331 1.188 2.017 2.493 4.648 2.358 9.214 2.3 14.373-.424 4.332-1.554 7.45-3.722 11.2-2.732 3.77-5.69 6.707-9.613 9.226-10.103 3.939-21.51 2.104-31.973.57-4.372-.64-8.758-1.105-13.152-1.57-5.089-.545-10.136-1.164-15.187-2-6.638-1.08-13.305-1.667-20.004-2.215-5.215-.452-10.218-1.256-15.338-2.34-3.358-.637-6.618-.837-10.034-1.008-4.833-.25-9.524-.732-14.312-1.437q-2.08-.225-4.164-.43c-24.344-2.397-24.344-2.397-31.399-7.445-3.601-3.102-6.562-5.906-8.34-10.414-1.658-5.059-2.422-9.346-2.097-14.711.953-3.43.953-3.43 2.25-6.875l1.266-3.43c1.403-3.493 2.901-6.923 4.444-10.357 1.724-3.877 3.345-7.797 4.978-11.713 2.159-5.16 4.333-10.3 6.687-15.375 2.471-5.341 4.616-10.8 6.75-16.281 1.223-3.064 2.568-6.057 3.95-9.052 2.494-5.47 4.823-10.994 7.109-16.554l2.466-5.935q1.912-4.597 3.804-9.203c1.233-3 2.48-5.994 3.73-8.987l1.118-2.753c2.983-7.093 6.703-13.285 12.573-18.36 3.601-2.662 6.539-4.315 11-4.875 5.211-.454 9.926.015 14.875 1.75 6.203 3.36 10.09 8.25 14 14 2.184 3.591 4.222 7.256 6.25 10.938q1.7 3.047 3.402 6.093l1.695 3.035c2.435 4.322 4.94 8.601 7.465 12.871l1.292 2.186q1.447 2.44 2.896 4.877c3.039-.638 5.455-1.652 8.168-3.152l2.428-1.337 2.591-1.448 2.717-1.507a775 775 0 0 0 18.253-10.512c6.437-3.82 12.918-7.56 19.406-11.294a4154 4154 0 0 0 25.312-14.687c9.268-5.421 18.579-10.762 27.906-16.078a2650 2650 0 0 0 24.781-14.298l2.944-1.719a5443 5443 0 0 0 11.34-6.64q4.012-2.356 8.029-4.703l2.416-1.427c1.884-1.1 3.794-2.153 5.709-3.198h2v-2l2.238-1.088c7.099-3.494 13.96-7.25 20.762-11.287l6.293-3.7 3.302-1.938c5.882-3.433 11.8-6.803 17.717-10.174a3560 3560 0 0 0 27.181-15.628c5.315-3.089 5.315-3.089 7.507-4.185l-.219-1.8c-.72-6.426-.892-12.738-.781-19.2l2 2 .813 3.375c.882 3.692.882 3.692 3.5 5.75L482 554c4.835 4.505 4.835 4.505 6 8h3v2l2.375.375L496 565l2 2c5.12 2.873 10.352 5.368 16 7l3.18 1.012c3.946 1.02 7.708 1.426 11.758 1.613l2.013.117c2.016.11 4.031.189 6.049.258l3.93.14c4.565-.025 8.831-.969 13.258-2.015l2.365-.527c6.245-1.43 11.694-3.64 17.447-6.473l3.063-1.492c2.928-1.628 5.33-3.543 7.937-5.633h2v-2c2.375-2.125 2.375-2.125 5-4h2l.875-1.812C596 551 596 551 598 548h2l.824-1.723c1.207-2.337 2.572-4.498 3.989-6.715 7.693-12.873 11.14-27.268 11.562-42.187-.328-11.941-3.049-24.552-8.863-35.066-1.583-2.418-3.111-3.736-5.512-5.309"/><path fill="#E8D9D0" d="M542 221a103963 103963 0 0 1 .111 99.747q.015 16.627.043 33.255.028 17.053.034 34.107.003 9.582.023 19.164.02 9.01.015 18.022 0 3.315.012 6.628c.01 3.008.008 6.015.003 9.023l.017 2.673c-.01 2.129-.125 4.256-.258 6.381l-2 3c-2.477 1.07-2.477 1.07-5.625 2.125C520.111 460.431 508.48 467.965 498 479l-2.488 2.613c-11.393 12.967-17.479 28.544-21.13 45.203-.558 4.648-.526 9.258-.507 13.934l-.012 2.844c.009 6.192.402 12.258 1.137 18.406-12.627 7.404-25.282 14.754-38 22a3235 3235 0 0 0-33.05 19.11l-2.585 1.505a379 379 0 0 0-4.476 2.66c-1.602.956-3.243 1.847-4.889 2.725h-3v2l-2.025 1.126c-16.78 9.338-16.78 9.338-33.385 18.982-6.353 3.767-12.75 7.457-19.152 11.142-8.68 5-17.349 10.016-26 15.063l-2.984 1.735a845 845 0 0 0-13.626 8.085l-2.392 1.444q-2.184 1.32-4.35 2.668c-1.651.996-3.365 1.887-5.086 2.755l-3-1a78 78 0 0 1-3.312-7.062l-.927-2.196A619 619 0 0 1 270 658l-.778-1.905C248.062 603.821 242.256 546.718 250 491c4.929-32.454 14.429-65.19 30.044-94.187a199 199 0 0 0 2.98-5.938c3.874-7.976 8.063-15.477 12.976-22.875q1.689-2.718 3.375-5.437c5.606-8.805 12.072-16.99 18.637-25.094a376 376 0 0 0 4.195-5.313l2.168-2.781 1.96-2.54c.55-.605 1.1-1.21 1.665-1.835h2l.766-1.75c1.384-2.523 2.95-4.224 4.98-6.262l2.271-2.283 2.42-2.392 2.473-2.457c5.776-5.686 11.685-10.89 18.09-15.856q4.4-3.665 8.785-7.348L372 285h2v-2a114 114 0 0 1 6.563-4.562l2.07-1.355C429.267 246.793 485.238 220.781 542 221"/><path fill="#988676" d="M602 457c6.934.81 11.405 4.02 17 8 3.787 2.863 7.56 5.724 11 9l1 3 1.938.938L635 479c1.125 1.875 1.125 1.875 2 4l1 1.875c4.455 9.466 3.829 19.886 3 30.125-1.766 12.5-6.155 23.883-12 35h-2l-.75 2.633c-1.33 3.583-2.987 6.172-5.25 9.242l-2.125 2.93L617 567h-2l-.168 1.715C614 571 614 571 611.637 573.254l-2.95 2.308-2.925 2.317L603 580l-2.23 1.777L599 583h-2v2q-3.062 1.658-6.125 3.313l-3.445 1.863L584 592l-2.89 1.54c-16.791 7.888-35.113 10.384-53.517 9.191-12.316-1.074-23.54-4.204-34.593-9.731a259 259 0 0 0-5-2c4.149 6.43 4.149 6.43 8.875 12.438L499 606v2l-1.914 1.063c-13.753 7.647-27.42 15.418-40.996 23.375a3035 3035 0 0 1-18.965 11l-3.273 1.886-6.57 3.785Q419.14 653.802 411 658.5l-6.5 3.75-3.25 1.875-13 7.5-6.496 3.748a25831 25831 0 0 1-16.324 9.412 7228 7228 0 0 0-37.922 21.996l-2.698 1.574a1497 1497 0 0 0-6.065 3.57l-3.253 1.919-2.965 1.756C310 717 310 717 307 718c5.13 7.176 10.39 14.192 16 21l2.398 2.965c6.467 7.856 13.492 15.138 20.664 22.347l2.757 2.785c6.086 6.058 12.436 11.592 19.181 16.903l2.01 1.6c43.998 34.686 96.534 56.257 151.783 64.834 5.059.698 10.116 1.171 15.207 1.566l3.473.332c52.16 4.41 106.917-4.6 154.402-26.832A989 989 0 0 0 702 822q2.025-.968 4.05-1.934c7.448-3.586 14.36-7.404 21.106-12.207a56 56 0 0 1 6.676-3.742c4.438-2.164 8.358-4.858 12.356-7.742l2.22-1.586c12.875-9.2 12.875-9.2 24.592-19.789q2.112-1.89 4.25-3.75c5.022-4.499 9.837-9.19 14.625-13.937l2.235-2.197c3.834-3.826 6.952-7.544 9.89-12.116 2.016-2.456 4.135-4.817 6.25-7.187 5.313-6.03 10.19-12.186 14.75-18.813l-1-2c-1.698-.975-1.698-.975-3.875-1.937-8.642-4.2-16.84-9.212-25.125-14.063q-5.78-3.376-11.562-6.75l-3.033-1.77A5489 5489 0 0 0 734.5 664a5607 5607 0 0 1-51.436-29.717 3099 3099 0 0 0-19.34-11.196A5110 5110 0 0 1 648 614l-2.402-1.386a576 576 0 0 1-5.723-3.364l-2.945-1.734L635 606v-3c1.25-1.516 1.25-1.516 3-3.25 7.95-8.788 12.436-19.905 15.797-31.117L655 566c1.86-.771 1.86-.771 4-1a83 83 0 0 1 7.563 4.25l4.53 2.766 2.403 1.474a323 323 0 0 0 7.848 4.557l2.638 1.495q2.558 1.446 5.124 2.877l2.335 1.331 2.085 1.172L695 586v2c.699.095 1.397.19 2.117.29 3.446.849 5.95 2.28 9.008 4.085q1.836 1.08 3.672 2.156l2.01 1.188c2.431 1.42 4.88 2.805 7.334 4.187l5.234 2.969 2.579 1.443 2.382 1.362 2.142 1.21L733 608v2l2.063.25c3.718.95 6.66 2.817 9.937 4.75l5.582 3.242q3.116 1.816 6.23 3.633l3.12 1.816c5.6 3.267 11.178 6.567 16.733 9.91a828 828 0 0 0 11.023 6.462l2.418 1.4c8.472 4.89 16.991 9.694 25.511 14.498C822.094 659.614 828.55 663.3 835 667v2l1.98.207c4.23 1.11 7.599 3.244 11.332 5.48l5.125 3.02 2.739 1.624c3.862 2.283 7.742 4.536 11.62 6.79 7.181 4.175 14.353 8.362 21.481 12.625l3.042 1.815q2.867 1.713 5.727 3.44l2.595 1.55 2.266 1.364c2.038 1.056 3.851 1.635 6.093 2.085l.814-2.17c1.2-2.862 2.595-5.434 4.163-8.111l1.77-3.034 1.878-3.185 1.92-3.261q1.882-3.192 3.77-6.38a610 610 0 0 0 4.107-7.082c3.715-6.352 7.375-11.66 13.578-15.777 4.288-2.144 8.578-2.477 13.324-2.39 4.668.68 8.853 2.648 12.676 5.39l1 3h2c3 5.625 3 5.625 3 9h2a345 345 0 0 1 1.5 3.75l.844 2.11C978 683 978 683 978 687h2c3.921 8.035 3.921 8.035 4.25 12.063L984 701h2a345 345 0 0 1 1.5 3.75l.844 2.11C989 709 989 709 989 713h2c3 6.5 3 6.5 3 11h2q1.008 2.653 2 5.313l1.125 2.988C1000 735 1000 735 1000 738h2c2.227 4.744 3.461 8.723 4 14h2c1.604 3.508 2.22 6.144 2 10h2q1.008 2.653 2 5.313l1.125 2.988C1016 773 1016 773 1016 776h2c3.55 10.21 3.55 10.21 2.563 15.625-1.79 6.155-5.447 11.202-9.875 15.75-6.459 3.905-13.518 5.119-20.938 5.75l-2.482.238c-5.99.563-11.989 1.02-17.995 1.39L967 815l-1 1c-1.693.299-3.396.539-5.102.754l-3.175.4-3.348.409-3.277.42c-5.417.67-10.634 1.064-16.098 1.017-2.339.29-4.672.63-7 1q-2.535.364-5.074.719l-2.756.385c-7.938 1.1-15.84 2.152-23.838 2.712-2.036.16-4.062.444-6.082.746-6.948.936-13.596.775-20.25-1.562-4.205-2.588-6.402-5.245-8.875-9.5-2.27-5.122-2.695-9.47-2.593-15.035.814-6.024 3.688-10.611 6.843-15.715l1.917-3.257A854 854 0 0 1 873 770a1730 1730 0 0 0 4.512-7.614 410 410 0 0 1 2.554-4.26c1.824-3.03 3.19-5.674 3.934-9.126l-2.074-.766c-3.39-1.43-6.548-3.165-9.739-4.984l-2.03-1.149c-7.735-4.395-15.41-8.898-23.082-13.403l-2.997-1.757-2.675-1.572A109 109 0 0 0 835 722v-2l-8-1-3.25 4.625-1.934 2.75a180 180 0 0 0-4.129 6.25L816 735h-2l-.582 2.043c-1.986 4.141-4.927 6.996-8.106 10.27q-1.917 2.01-3.832 4.023l-1.842 1.929a167 167 0 0 0-5.513 6.173c-5.9 6.81-12.319 12.65-19.348 18.28-2.624 2.156-5.106 4.404-7.59 6.72-5.995 5.439-12.51 10.017-19.187 14.562l-1.869 1.288c-12.222 8.38-25.165 15.35-38.282 22.219a794 794 0 0 0-6.888 3.657c-9.947 5.199-20.419 9.038-30.961 12.836l-2.1.758C641.215 849.29 613.24 854.305 585 856l-2.953.203c-38.094 2.569-76.825-2.517-113.055-14.548a440 440 0 0 0-6.242-1.987C420.538 826.308 384.179 802.847 351 774l-1.6-1.384c-1.431-1.24-2.853-2.49-4.275-3.741l-2.43-2.133L341 765v-2l-1.687-.687c-5.076-2.881-8.72-7.825-12.438-12.25l-1.425-1.69c-7.444-8.89-14.554-18.054-21.45-27.373l-2.75.938c-2.416.79-4.778 1.491-7.25 2.062v2l-1.873 1.05c-15.917 8.923-15.917 8.923-31.608 18.233-2.25 1.373-4.445 2.684-6.851 3.768L252 750l-1 3 3 1c1.188 3.563 1.188 3.563 2 7h2l1.8 3.27c5.124 9.274 10.332 18.49 15.707 27.622l1.34 2.292c.393.665.785 1.331 1.188 2.017 2.493 4.648 2.358 9.214 2.3 14.373-.424 4.332-1.554 7.45-3.722 11.2-2.732 3.77-5.69 6.707-9.613 9.226-10.103 3.939-21.51 2.104-31.973.57-4.372-.64-8.758-1.105-13.152-1.57-5.089-.545-10.136-1.164-15.187-2-6.638-1.08-13.305-1.667-20.004-2.215-5.215-.452-10.218-1.256-15.338-2.34-3.358-.637-6.618-.837-10.034-1.008-4.833-.25-9.524-.732-14.312-1.437q-2.08-.225-4.164-.43c-24.344-2.397-24.344-2.397-31.399-7.445-3.601-3.102-6.562-5.906-8.34-10.414-1.658-5.059-2.422-9.346-2.097-14.711.953-3.43.953-3.43 2.25-6.875l1.266-3.43c1.403-3.493 2.901-6.923 4.444-10.357 1.724-3.877 3.345-7.797 4.978-11.713 2.159-5.16 4.333-10.3 6.687-15.375 2.471-5.341 4.616-10.8 6.75-16.281 1.223-3.064 2.568-6.057 3.95-9.052 2.494-5.47 4.823-10.994 7.109-16.554l2.466-5.935q1.912-4.597 3.804-9.203c1.233-3 2.48-5.994 3.73-8.987l1.118-2.753c2.983-7.093 6.703-13.285 12.573-18.36 3.601-2.662 6.539-4.315 11-4.875 5.211-.454 9.926.015 14.875 1.75 6.203 3.36 10.09 8.25 14 14 2.184 3.591 4.222 7.256 6.25 10.938q1.7 3.047 3.402 6.093l1.695 3.035c2.435 4.322 4.94 8.601 7.465 12.871l1.292 2.186q1.447 2.44 2.896 4.877c3.039-.638 5.455-1.652 8.168-3.152l2.428-1.337 2.591-1.448 2.717-1.507a775 775 0 0 0 18.253-10.512c6.437-3.82 12.918-7.56 19.406-11.294a4154 4154 0 0 0 25.312-14.687c9.268-5.421 18.579-10.762 27.906-16.078a2650 2650 0 0 0 24.781-14.298l2.944-1.719a5443 5443 0 0 0 11.34-6.64q4.012-2.356 8.029-4.703l2.416-1.427c1.884-1.1 3.794-2.153 5.709-3.198h2v-2l2.238-1.088c7.099-3.494 13.96-7.25 20.762-11.287l6.293-3.7 3.302-1.938c5.882-3.433 11.8-6.803 17.717-10.174a3560 3560 0 0 0 27.181-15.628c5.315-3.089 5.315-3.089 7.507-4.185l-.219-1.8c-.72-6.426-.892-12.738-.781-19.2l2 2 .813 3.375c.882 3.692.882 3.692 3.5 5.75L482 554c4.835 4.505 4.835 4.505 6 8h3v2l2.375.375L496 565l2 2c5.12 2.873 10.352 5.368 16 7l3.18 1.012c3.946 1.02 7.708 1.426 11.758 1.613l2.013.117c2.016.11 4.031.189 6.049.258l3.93.14c4.565-.025 8.831-.969 13.258-2.015l2.365-.527c6.245-1.43 11.694-3.64 17.447-6.473l3.063-1.492c2.928-1.628 5.33-3.543 7.937-5.633h2v-2c2.375-2.125 2.375-2.125 5-4h2l.875-1.812C596 551 596 551 598 548h2l.824-1.723c1.207-2.337 2.572-4.498 3.989-6.715 7.693-12.873 11.14-27.268 11.562-42.187-.328-11.941-3.049-24.552-8.863-35.066-1.583-2.418-3.111-3.736-5.512-5.309M886 920h64l3 3v3h2c1.202 1.63 1.202 1.63 2.54 3.918l1.495 2.531 1.59 2.739 3.29 5.57 1.613 2.747c5.518 9.354 11.368 18.505 17.178 27.679a664 664 0 0 1 11.595 19.035c3.188 5.388 6.537 10.657 9.949 15.906 3.844 5.918 7.67 11.846 11.438 17.813l1.315 2.06A169 169 0 0 1 1020 1031v2c4.67-4.2 7.658-8.95 10.875-14.312q1.732-2.843 3.465-5.684l1.816-2.988c3.051-4.99 6.17-9.938 9.282-14.891a1882 1882 0 0 0 14.75-23.937c10.191-16.815 10.191-16.815 14.213-22.806 2.749-4.174 5.014-8.197 6.871-12.843 2.636-6.055 5.391-11.463 10.728-15.539 9.694-3.262 20.446-2.126 30.502-1.5 3.763.21 7.528.291 11.295.387 16.099.465 16.099.465 22.203 1.113l1 1a65 65 0 0 1 .123 4.34l.006 2.856-.009 3.174.003 3.344q.001 5.592-.01 11.185l.001 7.98q0 8.615-.008 17.23-.011 12.455-.012 24.91-.004 20.207-.019 40.413-.014 19.634-.02 39.266v2.444l-.005 12.133q-.016 50.362-.05 100.725h-59a32320 32320 0 0 1-.5-39.187l-.036-2.983a7365 7365 0 0 1-.524-97.742q.016-17.043.06-34.088a128 128 0 0 0-7.898 10.86l-1.084 1.662a2849 2849 0 0 0-3.393 5.228l-4.46 6.86-2.155 3.312a1200 1200 0 0 1-9.994 15.02c-2.975 4.416-5.9 8.84-8.68 13.382l-1.364 2.223a570 570 0 0 0-2.647 4.373c-1.055 1.727-2.184 3.409-3.325 5.08h-2l-.715 2.031c-1.615 3.731-3.674 7.041-5.848 10.469l-1.34 2.132c-3.514 5.543-7.207 10.935-10.98 16.305-3.18 4.6-6.16 9.319-9.117 14.063-1.739-.627-1.739-.627-4-2-2.017-2.61-2.017-2.61-4.176-5.965l-1.206-1.856c-1.319-2.033-2.624-4.075-3.93-6.117q-1.387-2.144-2.777-4.286-2.94-4.535-5.869-9.076c-4.544-7.033-9.15-14.025-13.754-21.02a7104 7104 0 0 1-4.295-6.537 3837 3837 0 0 0-16.77-25.31q-3.056-4.582-6.102-9.169l-5.904-8.877-3.533-5.31-2.077-3.123c-1.404-2.213-1.404-2.213-2.607-3.354l-1 173h-58z"/><path fill="#776959" d="m252 920 69.375-.187 21.81-.083c8.869-.014 8.869-.014 13.036-.016q4.316-.005 8.63-.03c37.86-.208 37.86-.208 55.462 6.066l2.236.776C437.62 931.948 450.464 940.91 461 953c9.193 12.34 15.007 26.431 16.802 41.708 1.709 19.736.184 39.263-7.927 57.476-5.915 12.273-15.572 23.15-26.723 30.894-6.155 3.753-12.642 6.84-19.152 9.922l-2 1c1.307 3.561 2.865 6.515 5.02 9.633l1.827 2.66 1.966 2.832 2.047 2.976q2.082 3.023 4.168 6.044c2.752 3.985 5.488 7.982 8.222 11.98l1.534 2.24c3.372 4.924 6.727 9.859 10.075 14.8l1.284 1.893q3.164 4.668 6.323 9.337l2.346 3.464 2.204 3.256c1.637 2.381 3.32 4.71 5.046 7.026L476 1175v3h2c1.727 2.082 1.727 2.082 3.625 4.813l1.914 2.707L485 1188v3c-51.338 6.127-51.338 6.127-69 0-7.325-4.065-12.02-10.19-16.3-17.261-3.658-6.536-6.929-13.175-9.96-20.023-3.207-7.033-7.528-13.197-11.93-19.523-3.155-4.577-5.778-8.859-7.841-14.021-2.202-5.129-4.462-9.418-8.544-13.304-8.155-4.448-18.309-3.766-27.363-3.743L312 1104v87h-60zm60 54a363 363 0 0 0-1.098 29.809l.005 4.038q.006 5.23.024 10.46.014 5.37.02 10.742.016 10.476.049 20.951c3.332 1.779 5.526 2.247 9.328 2.23l3.305-.002 3.617-.04 3.79-.029q4.17-.037 8.34-.097 4.847-.068 9.692-.104 6.648-.057 13.294-.169 2.605-.039 5.21-.06c11.335-.098 21.822-.692 32.08-6.14 5.375-3.244 9.812-7.396 13.344-12.589 3.882-7.623 5.284-14.919 5.145-23.426-.41-7.292-2.362-12.984-6.32-19.148-3.685-4.9-7.868-8.864-13.31-11.739-10.793-4.558-21.17-4.964-32.706-4.882l-4.67.008q-6.104.014-12.206.05c-4.163.02-8.327.03-12.49.04-8.147.02-16.295.055-24.443.097M2 920c136.923 0 136.923 0 153.25 5.75l2.259.782c14.703 5.275 28.21 13.872 38.366 25.843 9.83 12.862 17.147 26.567 19.621 42.719 1.9 15.677 1.941 32.674-2.496 47.906l-.809 3.066c-3.916 13.352-11.648 24.94-21.191 34.934-13.59 12.684-30.498 20.73-48.402 25.191-13.392 3.01-26.662 3.971-40.364 3.907l-3.12-.003c-3.788-.006-7.576-.02-11.364-.033L62 1110v81H2zm96.816 53.219-2.838.06q-5.208.109-10.415.221L62 974v83l24.563.188 7.654.082c15.45.099 29.387-.145 43.263-7.743 6.594-3.996 10.726-8.814 14.52-15.527 3.79-8.08 4.62-16.184 4-25-1.07-7.114-2.987-13.153-7.281-18.973-5.855-6.905-12.253-10.883-20.719-14.027-9.915-3.323-18.85-3.004-29.184-2.781"/><path fill="#988676" d="M799.792 929.346c6.136 3.094 12.19 6.335 18.208 9.654v2l1.687.312c2.79.83 4.927 2.031 7.313 3.688v2l5 2c-.19 2.603-.773 4.62-2.11 6.861a256 256 0 0 1-4.578 6.389l-3.308 4.586-1.593 2.198a187 187 0 0 0-4.661 6.841c-2.858 4.355-5.93 8.545-9.016 12.742A159 159 0 0 0 803 994c-4.462-.512-7.259-1.511-10.938-4.063C777.576 980.397 760.61 971.324 743 970a320 320 0 0 0-11.063-.313l-2.795-.054c-7.56.01-14.129 1.422-20.947 4.726-3.42 2.298-6.067 4.49-8.758 7.641-2.218 4.59-1.983 9.628-1.808 14.621.41 3.728.973 6.52 2.937 9.715 6.104 7.085 15.87 10.468 24.434 13.664 4.708 1.474 9.462 2.69 14.25 3.875q3.94 1.01 7.875 2.04l1.989.516c6.762 1.773 13.455 3.762 20.136 5.819l3.15.96c19.229 5.98 37.393 14.164 51.6 28.79l1.809 1.816c7.002 7.506 11.251 16.542 13.668 26.477 3.297 17.05 2.098 35.243-3.34 51.7-3.474 9.191-7.999 17.186-15.137 24.007l-1.863 2.031c-5.975 6.38-12.537 10.708-20.137 14.969l-2.152 1.246c-7.917 4.302-16.932 6.74-25.848 7.754l-1 1c-23.004 5.141-48.402 2.743-71-3l-3.617-.871c-25.711-6.441-48.084-19.312-68.383-36.129.195-1.629.195-1.629 1-4a105 105 0 0 1 4.875-5.938l3.012-3.484 1.564-1.795a853 853 0 0 0 7.236-8.47l1.377-1.625c7.306-8.586 7.306-8.586 13.936-17.688 3.178.365 4.951.966 7.605 2.812l2.582 2.188c3.219 2.786 3.219 2.786 6.813 5v2l1.703.324c2.686.79 4.679 1.999 7.047 3.488 14.952 9.102 32.303 14.773 49.883 15.473 12.193.277 23.303-.021 34.367-5.66 4.128-2.486 6.674-5.283 9.05-9.48 1.978-4.467 2.163-9.5 1.774-14.329-.706-3.66-2.012-6.47-4.262-9.441-8.764-9.202-22.734-12.776-34.562-16.375-4.113-1.152-8.242-2.235-12.375-3.313-53.893-14.095-53.893-14.095-74.008-32.078-7.344-7.309-12.26-16.851-15.367-26.672A196 196 0 0 1 639 1019l-.621-2.434c-3.367-15.253-1.766-31.187 2.652-46.03 4.25-12.076 11.66-22.774 20.969-31.536 12.92-10.937 27.49-17.471 44-21l3.105-.684c29.418-5.298 63.653-1.007 90.687 12.03M562.348-.406c4.223-.146 7.589-.039 11.527 1.61 6.52 3.752 6.52 3.752 8.402 7L583 10h2c1.322 1.49 1.322 1.49 2.836 3.594l1.707 2.347 1.832 2.559 3.836 5.281 1.94 2.68c2.579 3.542 5.21 7.043 7.849 10.539 3.74 4.963 7.44 9.953 11.11 14.967a936 936 0 0 0 18.053 23.817c3.727 4.768 7.385 9.57 10.892 14.505a260 260 0 0 0 4.578 6.172c8.534 11.313 8.534 11.313 9.32 17.602.15 6.212-1.44 11.105-4.293 16.562-2.753 3.938-6.375 6.298-10.66 8.375-4.228 1.253-8.382 1.107-12.754 1.063l-2.594-.012c-3.65-.016-7.301-.044-10.952-.072q-4.008-.025-8.016-.042l-2.442-.025c-6.2-.026-11.988.52-18.242 1.088v310l-10-1c-2.103-.08-4.208-.13-6.312-.133l-3.32-.004-3.368.012-3.367-.012c-6.001.007-11.85.25-17.805 1.02L543 451l-1-1a84 84 0 0 1-.123-4.964l-.006-3.279.009-3.646-.003-3.839q-.002-5.298.007-10.596.005-5.704.002-11.41 0-9.891.008-19.782.011-14.303.012-28.604.004-23.2.019-46.402.014-22.543.02-45.087v-2.805l.005-13.931q.016-57.827.05-115.655l-1.838.02c-6.343.067-12.686.112-19.03.145q-3.546.022-7.09.061c-3.41.037-6.817.054-10.226.067-1.047.015-2.094.03-3.173.047-6.318.001-11.882-.592-17.643-3.34-2.812-2.312-2.812-2.312-5-5l-2.187-2.625c-2.48-4.619-3.807-9.114-3.813-14.375 1.374-8.114 5.219-13.648 10.313-19.937q2.183-2.778 4.363-5.56l2.21-2.795c3.127-4.005 6.123-8.1 9.114-12.208 5.582-7.626 11.288-15.15 17.032-22.655 4.448-5.82 8.824-11.688 13.155-17.595l3.43-4.652c1.71-2.32 3.416-4.643 5.107-6.977C548.605 6.234 548.605 6.234 557 2c3-2 3-2 5.348-2.406M656 565c3.402.523 6.035 2.002 9 3.695l2.924 1.661 3.076 1.769 3.125 1.786a3451 3451 0 0 1 6.114 3.506 757 757 0 0 0 6.945 3.93c1.073.608 2.147 1.215 3.254 1.84l2.746 1.543L695 586v2l2.117.29c3.446.849 5.95 2.28 9.008 4.085q1.836 1.08 3.672 2.156l2.01 1.188c2.431 1.42 4.88 2.805 7.334 4.187l5.234 2.969 2.579 1.443 2.382 1.362 2.142 1.21L733 608v2l2.063.25c3.718.95 6.66 2.817 9.937 4.75l5.582 3.242q3.116 1.816 6.23 3.633l3.12 1.816c5.6 3.267 11.178 6.567 16.733 9.91a828 828 0 0 0 11.023 6.462l2.418 1.4c8.472 4.89 16.991 9.694 25.511 14.498C822.094 659.614 828.55 663.3 835 667v2l1.98.207c4.23 1.11 7.599 3.244 11.332 5.48l5.125 3.02 2.739 1.624c3.862 2.283 7.742 4.536 11.62 6.79 7.181 4.175 14.353 8.362 21.481 12.625l3.042 1.815q2.867 1.713 5.727 3.44l2.595 1.55 2.266 1.364c2.038 1.056 3.851 1.635 6.093 2.085l.814-2.17c1.2-2.862 2.595-5.434 4.163-8.111l1.77-3.034 1.878-3.185 1.92-3.261q1.882-3.192 3.77-6.38a610 610 0 0 0 4.107-7.082c3.715-6.352 7.375-11.66 13.578-15.777 4.288-2.144 8.578-2.477 13.324-2.39 4.668.68 8.853 2.648 12.676 5.39l1 3h2c3 5.625 3 5.625 3 9h2a345 345 0 0 1 1.5 3.75l.844 2.11C978 683 978 683 978 687h2c3.921 8.035 3.921 8.035 4.25 12.063L984 701h2a345 345 0 0 1 1.5 3.75l.844 2.11C989 709 989 709 989 713h2c3 6.5 3 6.5 3 11h2q1.008 2.653 2 5.313l1.125 2.988C1000 735 1000 735 1000 738h2c2.227 4.744 3.461 8.723 4 14h2c1.604 3.508 2.22 6.144 2 10h2q1.008 2.653 2 5.313l1.125 2.988C1016 773 1016 773 1016 776h2c3.55 10.21 3.55 10.21 2.563 15.625-1.79 6.155-5.447 11.202-9.875 15.75-6.459 3.905-13.518 5.119-20.938 5.75l-2.482.238c-5.99.563-11.989 1.02-17.995 1.39L967 815l-1 1c-1.693.299-3.396.539-5.102.754l-3.175.4-3.348.409-3.277.42c-5.417.67-10.634 1.064-16.098 1.017-2.339.29-4.672.63-7 1q-2.535.364-5.074.719l-2.756.385c-7.938 1.1-15.84 2.152-23.838 2.712-2.036.16-4.062.444-6.082.746-6.948.936-13.596.775-20.25-1.562-4.205-2.588-6.402-5.245-8.875-9.5-2.27-5.122-2.695-9.47-2.593-15.035.814-6.024 3.688-10.611 6.843-15.715l1.917-3.257A854 854 0 0 1 873 770a1730 1730 0 0 0 4.512-7.614 410 410 0 0 1 2.554-4.26c1.824-3.03 3.19-5.674 3.934-9.126l-2.074-.766c-3.39-1.43-6.548-3.165-9.739-4.984l-2.03-1.149c-7.735-4.395-15.41-8.898-23.082-13.403l-2.997-1.757-2.675-1.572A109 109 0 0 0 835 722v-2l-2.242-.365c-2.69-.62-4.516-1.42-6.887-2.8l-2.368-1.363L821 714l-2.554-1.48c-2.8-1.624-5.592-3.259-8.384-4.895-11.892-6.954-23.82-13.845-35.758-20.72q-4.995-2.88-9.988-5.764A6473 6473 0 0 0 734.5 664a5601 5601 0 0 1-51.436-29.717 3099 3099 0 0 0-19.34-11.196A5110 5110 0 0 1 648 614l-2.402-1.386a576 576 0 0 1-5.723-3.364l-2.945-1.734L635 606v-3c1.25-1.516 1.25-1.516 3-3.25 7.945-8.781 12.424-20.008 16.09-31.117C655 566 655 566 656 565"/><path fill="#867A64" d="M423.805 930.224c11.435 4.044 22.862 10.774 30.945 19.839A393 393 0 0 1 458 954l2.375 2.813C462 959 462 959 463 962l2 2c.633 2.164.633 2.164 1.125 4.625l.508 2.477L467 973h2c2.9 5.546 2.9 5.546 3.5 8.25l.5 1.75 3 2c4.806 13.006 3.164 31.597.875 45-3.14 16.146-9.905 29.293-20.687 41.75-10.3 10.894-23.275 17.932-37.188 23.25.215 2.944.622 5.346 2.11 7.922 2.428 3.61 2.428 3.61 5.89 6.078a226 226 0 0 1 2.848 5.02c1.185 2.037 2.5 3.898 3.902 5.793L436 1123v2h2c1.332 1.723 1.332 1.723 2.813 4.063 1.943 3.027 3.921 5.983 6.062 8.875L449 1141v2h2c1.625 1.813 1.625 1.813 3 4v3h2c3.465 4.66 6.454 9.782 9 15v2h2c1.656 2.195 1.656 2.195 3.5 5.125l1.844 2.883c1.646 2.973 2.8 5.706 3.656 8.992l-1 2h-2v2c-6.759 1.276-13.392 1.191-20.25 1.188h-2.021c-27.39-.019-27.39-.019-33.729-3.188v-2h-3a875 875 0 0 1-2-4.375l-1.125-2.46C410 1175 410 1175 410 1173h-2c-6.04-8.36-10.513-17.753-15-27q-1.216-2.346-2.437-4.687C389 1138 389 1138 389 1135h-2l-.75-2.25c-1.078-2.835-1.078-2.835-3.312-4.687-1.938-2.063-1.938-2.063-2.625-4.75L380 1120l-.309-2.281c-.829-6.306-.829-6.306.309-9.719h-2l.625-2.25.375-2.75-2-4c-.278-2-.278-2-.319-4.126l-.06-2.426-.035-2.589-.059-2.673c-.06-2.812-.106-5.624-.152-8.436l-.117-5.727q-.142-7.01-.258-14.023l6-3 1 4h4v-3l3-1 2-2.062 2-1.938h3v-2a377 377 0 0 1 5-3c6.53-4.405 11.306-8.989 15-16 1.423-3.355 1.423-3.355 2-7l.473-2.176c1.52-9.493-.477-19.764-3.473-28.824-2.318-4.283-5.111-7.318-8.715-10.527L406 981v-3l-2.227-.816c-2.676-1.143-4.781-2.443-7.148-4.121-2.819-1.947-5.416-3.493-8.625-4.688L385 967c-.937-2.187-.937-2.187-1-4l-4 1 .75-1.75.25-2.25-1.937-1.531C377 956 377 956 376.575 953.897a129 129 0 0 1-.325-7.647l-.09-2.691q-.105-3.28-.16-6.559l-2-1 1.563-1.25L377 933c-.228-2.163-.228-2.163-1-4 4.082-.907 7.816-1.025 12-.937 2.578-.054 4.548-.362 7-1.063h2l1.89-.512c7.666-1.774 17.486 1.477 24.915 3.736"/><path fill="#786A5A" d="M527 920h59v271h-59l-1-1a64 64 0 0 1-.126-4.321l-.008-2.844.007-3.16-.005-3.33c-.004-3.712 0-7.424.003-11.136l-.006-7.946q-.005-9.699 0-19.398.003-7.879.001-15.758v-2.261l-.001-4.547q-.004-21.342.006-42.684.005-18.333-.001-36.665a71599 71599 0 0 1-.004-47.057v-2.252q.002-7.875-.002-15.748-.005-9.59.003-19.179.005-4.898 0-9.794-.002-5.298.006-10.594l-.007-3.161.008-2.844v-2.473L526 921z"/><path fill="#D8C6BB" d="M596 453c4.989 1.884 8.475 3.871 12 8 1.313 2.063 1.313 2.063 2 4v4l2 1c.774 2.18 1.445 4.396 2.063 6.625l1.035 3.664c3.309 13.608 2.444 27.267-1.098 40.711-3.018 9.727-7.41 19.146-14 27h-2l-.687 1.688c-1.697 2.988-3.77 5.011-6.313 7.312-2.312 1.313-2.312 1.313-4 2v2c-5.2 4.342-10.726 7.54-17 10l-2.312 1.563c-3.301 1.765-6.367 2.323-10.036 2.964-1.663.297-3.32.637-4.96 1.04-11.282 2.72-23.477 2.224-34.692-.567l-2.543-.625c-6.237-1.702-11.764-4.349-17.457-7.375a700 700 0 0 0-4-2v-2h-3v-2h-3c-2.625-2.312-2.625-2.312-5-5l-1-3-1.875-.937C478 552 478 552 476.375 550.313c-2.763-4.648-3.515-9.05-3.687-14.375.333-15.254 6.032-29.628 13.367-42.805 9.307-14.988 22.146-26.052 37.507-34.383 5.35-2.85 10.656-4.956 16.438-6.75l1-2 3.188.063c3.596.058 3.596.058 6.202-.552 14.65-2.868 31.53-1.226 45.61 3.489"/><path fill="#C4AD9D" d="M553 449c17.577-.527 33.79-.633 50 7 3.08 2.67 5.622 5.116 7 9v4l2 1c.774 2.18 1.445 4.396 2.063 6.625l1.035 3.664c3.309 13.608 2.444 27.267-1.098 40.711-3.018 9.727-7.41 19.146-14 27h-2l-.687 1.688c-1.697 2.988-3.77 5.011-6.313 7.312-2.312 1.313-2.312 1.313-4 2v2c-5.2 4.342-10.726 7.54-17 10l-2.312 1.563c-3.301 1.765-6.367 2.323-10.036 2.964-1.663.297-3.32.637-4.96 1.04-11.282 2.72-23.477 2.224-34.692-.567l-2.543-.625c-6.237-1.702-11.764-4.349-17.457-7.375a700 700 0 0 0-4-2v-2h-3v-2h-3c-2.625-2.312-2.625-2.312-5-5l-1-3-1.875-.937C478 552 478 552 476.375 550.313c-2.763-4.648-3.515-9.05-3.687-14.375.347-15.86 6.432-30.425 14.312-43.938l2 2c0 2.001-.01 4.003-.062 6.004.132 6.367 1.196 12.693 2.062 18.996h3l.813 2.125c2.47 6.164 2.47 6.164 6.75 11.125L504 534a105 105 0 0 1 3.313 3.438c2.063 1.91 4.214 3.23 6.687 4.562h2l1 2c9.36 3.027 19.23 3.978 29 3 5.42-1.313 10.197-3.449 15-6.25l3-1.75h3l1-3a159 159 0 0 1 5-3l1-2h2l.813-2.184c1.186-2.813 2.611-5.267 4.187-7.879 4.958-9.045 5.415-18.5 5.258-28.671-.353-4.474-1.476-8.176-3.258-12.266l-.797-2.066c-.663-1.675-1.425-3.31-2.203-4.934l-2-1-1.437-2.437c-1.46-2.799-1.46-2.799-4.563-4.563v-2h-2v-3l-2.125-.687c-2.538-1.16-3.956-2.135-6-3.938L559 453h-3c-1.687-2-1.687-2-3-4"/><path fill="#473D2F" d="M652 512h2c5.625 14.83 6.105 30.375 3.813 45.945-2.597 14.067-8.227 28.787-17.184 40.032a162 162 0 0 1-4.55 4.875c-2.132 2.12-2.132 2.12-3.946 4.586-7.858 9.44-19.036 15.74-30.133 20.562l-2.656 1.207c-13.804 5.687-30.56 7.19-45.235 5.29C540.52 632.33 527.823 628.152 516 621v-2l1.871.656 2.567.844 2.496.844c4.08.873 7.909.797 12.066.656l2.584-.08c22.805-.936 43.63-6.441 63.33-18.047 1.68-.985 3.381-1.932 5.086-2.873h2v-2h3v-2a87 87 0 0 1 4.688-3.812c14.975-11.47 26.889-27.294 34.25-44.625 4.045-11.464 4.664-22.185 2.57-34.063z"/><path fill="#FEFEFC" d="M542 221v4l-2.018.18C485.403 230.225 432.224 247.445 387 279c-9.855 7.062-19.28 14.677-28.427 22.632a601 601 0 0 1-3.438 2.965c-4.935 4.256-9.604 8.72-14.197 13.34l-2.026 2.014c-17.133 17.167-31.776 37.194-43.844 58.198a476 476 0 0 1-3.236 5.5C268.989 422.54 256.014 467.19 252 512l-.336 3.625c-4.058 50.892 5.346 105.252 27.059 151.54 1.042 2.313 1.788 4.358 2.277 6.835h-4c-24.443-54.382-34.21-111.185-28.483-170.556 3.762-36.699 13.982-74.051 31.527-106.632a199 199 0 0 0 2.98-5.937c3.874-7.976 8.063-15.477 12.976-22.875q1.689-2.718 3.375-5.437c5.606-8.805 12.072-16.99 18.637-25.094a376 376 0 0 0 4.195-5.313l2.168-2.781 1.96-2.54c.55-.605 1.1-1.21 1.665-1.835h2l.766-1.75c1.384-2.523 2.95-4.224 4.98-6.262l2.271-2.283 2.42-2.392 2.473-2.457c5.776-5.686 11.685-10.89 18.09-15.856q4.4-3.665 8.785-7.348L372 285h2v-2a114 114 0 0 1 6.563-4.562l2.07-1.355C429.054 246.93 485.416 220.398 542 221"/><path fill="#E8D9D0" d="m547 475 3.563.875L553 477c.875 2.125.875 2.125 1 4h3v4l1.875.625C561 487 561 487 562.25 489.438c1.045 4.962 1.427 9.518.75 14.562-1.954 5.495-4.86 10.86-9 15-4.818 2.828-9.74 4.796-15.324 5.3l-3.364.013-3.386.05L529 524c-1.668-1.426-1.668-1.426-3-3l-3.625-1.5L519 518l-1-3-2-1a78 78 0 0 1-2-5h-1c-.78-6.526-1.4-12.542 0-19 2.136-4.764 4.657-8.372 8.758-11.637 8.214-4.994 16.17-6.31 25.242-3.363"/><path fill="#FEFEFC" d="M589 221c10.436.407 20.48 1.541 30.726 3.559 2.371.46 4.748.89 7.126 1.316 10.8 1.985 21.117 4.735 31.517 8.244 2.917.977 5.844 1.924 8.772 2.87q3.18 1.035 6.359 2.073l2.966.959c9.426 3.118 18.305 7.266 27.159 11.729l2.02 1.018q3.181 1.61 6.355 3.232l2.185 1.111c9.342 4.773 18.237 9.817 26.815 15.889l1.723 1.208c11.403 7.999 22.253 16.493 32.829 25.555q1.774 1.513 3.565 3.007c4.673 3.96 9.027 8.24 13.383 12.543l1.93 1.89 1.789 1.785 1.623 1.61L799 322v2h2c2.704 2.868 5.079 6.02 7.517 9.116q1.576 2 3.162 3.994c12.903 16.226 12.903 16.226 17.633 24.091a416 416 0 0 0 3.475 5.657 369 369 0 0 1 12.896 22.371c.943 1.774 1.895 3.542 2.848 5.31 5.686 10.64 10.951 21.41 15.032 32.774l.886 2.447C881.023 475.995 888.589 528.124 881 577l-.505 3.292A770 770 0 0 1 876 606l-.542 2.831c-2.371 11.956-6.07 23.41-10.02 34.919l-.72 2.098c-2.6 7.53-5.323 14.94-8.718 22.152l-1.266 2.848L852 677l-4-2 1.363-1.69c19.212-27.094 25.81-71.89 28.925-104.306.866-10.496.914-20.978.9-31.504l-.004-2.831c-.137-52.668-13.118-104.125-39.23-150.126-17.726-30.39-40.373-60.993-67.962-83.117a348 348 0 0 1-7.89-6.62c-5.806-4.99-11.725-9.555-18.102-13.806l-3.32-2.297c-14.462-9.94-29.9-18.072-45.68-25.703l-2.703-1.324C661.435 236.123 625.142 227.76 589 225z"/><path fill="#605241" d="M650 512h2c3.103 10.677 3.31 19.226 1 30-1.126 3.773-2.47 7.376-4 11l-1 3h-2l-.562 2.375c-5.307 13.382-18.031 26.032-28.625 35.438l-2.043 1.832L613 597h-2v2h-3v2c-10.05 5.828-19.898 11.411-31 15l-1.9.651c-15.712 5.321-36.202 9.104-52.702 5.833C514.65 619.672 507.741 616.06 502 610c-1.2-2.187-1.2-2.187-2-4l2.043.87c11.478 4.388 22.857 5.878 35.082 5.755l2.151-.006c12.92-.076 24.591-2.119 36.724-6.619l3.582-1.266c10.695-4.118 20.168-10.302 29.238-17.23L611 586h2l1-3h2v-2a140 140 0 0 1 5-5c11.855-11.348 20.575-26.411 25.375-42.062 1.884-7.23 2.835-14.52 3.625-21.938"/><path fill="#FEFEFC" d="m825 717 4 1c-.565.52-1.13 1.042-1.71 1.578-3.171 3.354-5.59 7.15-8.11 10.996-1.013 1.508-2.091 2.972-3.18 4.426h-2l-.582 2.043c-1.986 4.141-4.927 6.996-8.106 10.27q-1.917 2.01-3.832 4.023l-1.842 1.929a167 167 0 0 0-5.513 6.173c-5.9 6.81-12.319 12.65-19.348 18.28-2.624 2.156-5.106 4.404-7.59 6.72-5.995 5.439-12.51 10.017-19.187 14.562l-1.869 1.288c-12.222 8.38-25.165 15.35-38.282 22.219a794 794 0 0 0-6.888 3.657c-9.947 5.199-20.419 9.038-30.961 12.836l-2.1.758C641.215 849.29 613.24 854.305 585 856l-2.953.203c-38.094 2.569-76.825-2.517-113.055-14.548a440 440 0 0 0-6.242-1.987C420.538 826.308 384.179 802.847 351 774l-1.6-1.384c-1.431-1.24-2.853-2.49-4.275-3.741l-2.43-2.133L341 765v-2l-1.687-.687c-5.076-2.881-8.72-7.825-12.438-12.25l-1.425-1.69C306.185 725.368 306.185 725.368 303 719c2.307.28 2.307.28 5 1 1.646 1.528 1.646 1.528 3.094 3.508l1.66 2.216 1.746 2.401q1.886 2.499 3.781 4.992l1.906 2.519c7.882 10.281 16.818 19.56 25.938 28.739l2.746 2.774C354.94 773.19 361.275 778.704 368 784l2.01 1.6c43.999 34.685 96.534 56.256 151.783 64.834 5.059.698 10.116 1.171 15.207 1.566l3.473.332c52.16 4.41 106.917-4.6 154.402-26.832A989 989 0 0 0 702 822q2.025-.968 4.05-1.934c7.448-3.586 14.36-7.404 21.106-12.207a56 56 0 0 1 6.676-3.742c4.438-2.164 8.358-4.858 12.356-7.742l2.22-1.586c12.875-9.2 12.875-9.2 24.592-19.789q2.112-1.89 4.25-3.75c5.022-4.499 9.837-9.19 14.625-13.937l2.235-2.197c3.834-3.826 6.952-7.544 9.89-12.116 2.016-2.456 4.135-4.817 6.25-7.187 5.313-6.03 10.19-12.186 14.75-18.813"/><path fill="#2C261C" d="M656 533h2c2.083 4.167 1.186 9.45 1 14-1.167 17.126-6.724 33.555-16 48a103 103 0 0 1-6.922 7.852c-2.13 2.12-2.13 2.12-3.945 4.586-7.858 9.44-19.036 15.74-30.133 20.562l-2.656 1.207C586.812 634.37 571.42 636.144 558 635c-7.812-1.056-15.446-2.758-23-5v-2l2.133.438c7.1 1.334 13.81 1.718 21.031 1.535C561 630 561 630 563 631v-2l3.7-.7c19.396-3.786 35.735-10.618 51.126-23.062 2.41-1.945 4.202-3.247 7.174-4.238 1.167-1.917 1.167-1.917 2-4l1-2h2v-2h2l1-3h2l.813-1.734c1.228-2.345 2.612-4.39 4.187-6.516l1.563-2.14L643 578h2l.867-1.734L651 566h2l-1-3 .867-2.414c1.656-5.242 1.865-10.498 2.258-15.961l.262-3.387q.315-4.118.613-8.238"/><path fill="#605241" d="M33 920q18.334-.106 36.67-.155 8.516-.022 17.032-.071c5.492-.033 10.984-.05 16.476-.059q3.123-.008 6.246-.032c15.727-.119 30.854.794 45.826 6.067l2.259.782c14.703 5.275 28.21 13.872 38.366 25.843 9.83 12.862 17.147 26.567 19.621 42.719 1.9 15.677 1.941 32.674-2.496 47.906l-.809 3.066c-3.916 13.352-11.648 24.94-21.191 34.934-12.697 11.85-28.461 19.514-44.914 24.652-2.336.39-3.853.08-6.086-.652l2-2c1.848-.492 1.848-.492 4.063-.875 8.432-1.746 15.832-6.031 23.433-9.953C172 1091 172 1091 174 1091v-2c1.723-1.297 1.723-1.297 4.063-2.75 11.39-7.434 19.425-17.07 25.812-29.062 3.553-7.476 5.45-15.126 7.125-23.188l.533-2.313c.973-5.596.712-11.333.717-17l.002-2.049c-.024-15.167-1.6-28.756-8.252-42.638-1.845-3.127-3.88-6.057-6-9l-1.562-2.75c-1.81-2.831-3.984-4.992-6.438-7.25l-2.477-2.281c-4.434-4.316-4.434-4.316-9.523-7.719v-2l-1.55-.266c-2.738-.82-5.113-2.069-7.626-3.413-26.725-14.225-56.587-13.485-86.151-13.302-16.56.062-33.12-.54-49.673-1.019zM306 717h3c1.832 1.906 1.832 1.906 3.813 4.5l2.125 2.762L317 727l1.75 2.27c2.1 2.745 4.073 5.426 5.813 8.418 1.791 2.882 4.01 4.941 6.437 7.312a301 301 0 0 1 2.813 3.375c2.833 3.36 5.98 6.165 9.316 9.016 4.785 4.116 8.832 8.82 12.906 13.62 1.955 1.98 3.503 2.784 5.965 3.989a287 287 0 0 1 4 4c2.287 1.934 4.641 3.78 7 5.625l1.867 1.484c2.961 2.326 5.737 4.242 9.133 5.891l1 2a134 134 0 0 0 6 3v2l1.82.367c2.746.797 4.577 2.398 6.836 4.098 3.682 2.411 7.657 4.252 11.633 6.123 1.59.762 3.154 1.583 4.711 2.412l1 2c2.16 1.19 2.16 1.19 4.813 2.313l3.011 1.328c4.099 1.754 8.21 3.472 12.332 5.172a292 292 0 0 1 7.469 3.25c6.961 3.116 14.002 5.908 21.27 8.226 2.105.711 2.105.711 4.44 1.695 3.12 1.19 6.22 1.917 9.478 2.641 1.16.26 2.322.52 3.519.79L486 840v2l1.625.078c5.794.42 11.308 1.483 16.938 2.86l2.166.514c1.775.45 3.526.992 5.271 1.548l1 2c-33.256-3.017-66.667-16.48-96-32l-1.906-1.001C398.09 806.988 381.914 796.153 367 784l-3.09-2.473c-8.02-6.56-15.383-13.79-22.723-21.09l-1.478-1.462A231 231 0 0 1 321 738l-3.145-3.89q-1.335-1.68-2.668-3.36l-1.365-1.695c-3.034-3.834-5.484-7.76-7.822-12.055M723 810v2c-10.784 6.269-21.513 11.761-33.146 16.268-2.563 1.012-5.08 2.127-7.604 3.232-8.869 3.724-18.106 6.536-27.25 9.5v-3l1.962-.683c12.715-4.45 25.276-9.058 37.574-14.573l2.456-1.092 2.136-.969C701 820 701 820 704 820v-2c6.625-3 6.625-3 10-3v-2c5.625-3 5.625-3 9-3"/><path fill="#605241" d="M120 973c7.18.032 12.78 1.738 19.098 5.129 5.824 3.755 10.706 8.574 14.34 14.496 3.46 7.475 4.706 14.936 4.687 23.125l.008 3.422C158 1022 158 1022 157 1024h-2l.105-2.86c.198-9.364-.04-18.122-4.394-26.671-3.123-5.01-6.756-9.222-11.711-12.469-4.861-2.585-9.796-4.773-15.125-6.187L121 975zM766 778h3c-1 3-1 3-2.388 4.344l-1.796 1.37-2.037 1.565c-.731.547-1.463 1.094-2.216 1.659l-2.266 1.715C750.102 794.79 741.584 800.428 733 806l-2-2c2.78-3.164 6.28-5.221 9.813-7.437 7.944-4.695 7.944-4.695 15.062-10.438 3.067-3.067 6.428-5.847 10.125-8.125"/><path fill="#786A5A" d="M474 986h2c1.665 7.714 2.32 15.054 2.25 22.938l-.012 3.171c-.08 7.136-.53 13.937-2.238 20.891h-2zM838 1093h2c1.353 12.057 2.902 26.294-1 38h-2q-.037-7.635-.055-15.271-.008-2.598-.02-5.197a2416 2416 0 0 1-.023-7.462l-.015-2.355c0-5.487 0-5.487 1.113-7.715"/><path fill="#605241" d="M799 745h3c-1.376 4.175-3.226 6.581-6.352 9.645l-2.578 2.548-2.695 2.62-2.719 2.677A1538 1538 0 0 1 781 769l-2-2c2.756-3.748 5.77-6.57 9.324-9.508 2.181-1.942 3.864-4.21 5.676-6.492h2l.938-2.437C798 746 798 746 799 745M824 718c-4.533 9.737-13.063 17.884-20 26l-3-1 2.555-2.922 3.32-3.828 1.684-1.922 1.62-1.875 1.492-1.714c1.411-1.729 1.411-1.729 2.38-3.892L815 725l2-1 1.5-2.5 1.5-2.5c2-1 2-1 4-1"/><path fill="#786A5A" d="M278 809h2c-.248 4.633-.754 8.098-3.125 12.125-2.62 3.847-5.782 7.557-9.875 9.875l-3-1c1.884-1.989 3.673-3.472 5.938-5.062 2.854-2.322 4.018-4.662 5.375-8.063A195 195 0 0 0 277 812z"/><path fill="#877B65" d="M185 650c2.849.375 4.78.858 7.21 2.426 6.19 5.396 10.025 11.31 13.79 18.574h-3c-1.488-2.184-1.488-2.184-3-5-3.822-6.471-3.822-6.471-9.234-11.535-2.392-1.225-2.392-1.225-5.766-2.465zM210 682l3 1c1.167 1.582 1.167 1.582 2.262 3.598l1.2 2.177 1.226 2.288c.415.758.83 1.517 1.26 2.298A883 883 0 0 1 222 699l-3 1c-9-15.934-9-15.934-9-18"/><path fill="#7C6E5E" d="m291 724 2 2a2262 2262 0 0 1-6.312 3.938l-1.803 1.13c-2.612 1.62-4.957 2.956-7.885 3.932l-1-2 3.027-1.715 3.91-2.222 1.999-1.131c3.222-1.702 3.222-1.702 6.064-3.932"/><path fill="#897C67" d="m267 738 2 2a691 691 0 0 1-6.312 4.063l-1.803 1.181c-1.581.998-3.23 1.885-4.885 2.756l-3-1c2.962-2.305 6.022-4.276 9.25-6.187l2.703-1.606z"/><path fill="#877B65" d="M171 822c5.439-.218 9.87-.104 15 2v1l-15-1z"/><path fill="#605241" d="m3 1186 2 2c1.942.384 1.942.384 4.063.5l3.937.5 1 2H2z"/><path fill="#877B65" d="m627 1150 1.32 1.137A872 872 0 0 0 640 1161h-3c-2.48-1.645-2.48-1.645-5.187-3.812l-2.731-2.145L627 1153zM215 827q2.72.173 5.438.375l3.058.21L226 828l1 2c-4.548.178-7.88-.002-12-2zM862 813c2.827 2.215 5.464 4.464 8 7l2 1v2c-2.558-.73-4.518-1.533-6.445-3.398-1.259-1.475-2.413-3.036-3.555-4.602z"/><path fill="#605241" d="M2 920h9c-4 2-4 2-7 3l-1 2z"/><path fill="#877B65" d="M205 673h2l4 8h-3c-3-5.75-3-5.75-3-8"/><path fill="#605241" d="m59 1186 1 3h2v2h-7l-1-2h5z"/><path fill="#786A5A" d="M467 1051h2c-.6 3.356-1.846 5.378-4 8l-1-3c1.313-2.687 1.313-2.687 3-5"/><path fill="#877B65" d="M135 817c6.152.586 6.152.586 8 1l1 2c-3.375.188-3.375.188-7 0z"/></svg>